<svg id="visual" viewBox="0 0 900 600" width="900" height="600" xmlns="http://www.w3.org/2000/svg" xmlns:xlink="http://www.w3.org/1999/xlink" version="1.1"><path d="M0 157L39 157L39 127L78 127L78 49L117 49L117 85L157 85L157 199L196 199L196 67L235 67L235 325L274 325L274 61L313 61L313 295L352 295L352 115L391 115L391 277L430 277L430 139L470 139L470 217L509 217L509 175L548 175L548 121L587 121L587 127L626 127L626 79L665 79L665 55L704 55L704 265L743 265L743 37L783 37L783 13L822 13L822 37L861 37L861 91L900 91L900 133L900 0L900 0L861 0L861 0L822 0L822 0L783 0L783 0L743 0L743 0L704 0L704 0L665 0L665 0L626 0L626 0L587 0L587 0L548 0L548 0L509 0L509 0L470 0L470 0L430 0L430 0L391 0L391 0L352 0L352 0L313 0L313 0L274 0L274 0L235 0L235 0L196 0L196 0L157 0L157 0L117 0L117 0L78 0L78 0L39 0L39 0L0 0Z" fill="#fcaf3c"></path><path d="M0 205L39 205L39 277L78 277L78 169L117 169L117 229L157 229L157 241L196 241L196 73L235 73L235 391L274 391L274 181L313 181L313 319L352 319L352 217L391 217L391 439L430 439L430 217L470 217L470 241L509 241L509 307L548 307L548 241L587 241L587 163L626 163L626 199L665 199L665 157L704 157L704 331L743 331L743 181L783 181L783 115L822 115L822 151L861 151L861 283L900 283L900 187L900 131L900 89L861 89L861 35L822 35L822 11L783 11L783 35L743 35L743 263L704 263L704 53L665 53L665 77L626 77L626 125L587 125L587 119L548 119L548 173L509 173L509 215L470 215L470 137L430 137L430 275L391 275L391 113L352 113L352 293L313 293L313 59L274 59L274 323L235 323L235 65L196 65L196 197L157 197L157 83L117 83L117 47L78 47L78 125L39 125L39 155L0 155Z" fill="#cbb134"></path><path d="M0 307L39 307L39 493L78 493L78 349L117 349L117 439L157 439L157 289L196 289L196 301L235 301L235 439L274 439L274 355L313 355L313 379L352 379L352 391L391 391L391 583L430 583L430 397L470 397L470 295L509 295L509 403L548 403L548 511L587 511L587 373L626 373L626 451L665 451L665 433L704 433L704 427L743 427L743 445L783 445L783 451L822 451L822 361L861 361L861 415L900 415L900 451L900 185L900 281L861 281L861 149L822 149L822 113L783 113L783 179L743 179L743 329L704 329L704 155L665 155L665 197L626 197L626 161L587 161L587 239L548 239L548 305L509 305L509 239L470 239L470 215L430 215L430 437L391 437L391 215L352 215L352 317L313 317L313 179L274 179L274 389L235 389L235 71L196 71L196 239L157 239L157 227L117 227L117 167L78 167L78 275L39 275L39 203L0 203Z" fill="#9caf3d"></path><path d="M0 319L39 319L39 541L78 541L78 379L117 379L117 553L157 553L157 307L196 307L196 385L235 385L235 469L274 469L274 451L313 451L313 481L352 481L352 421L391 421L391 595L430 595L430 505L470 505L470 355L509 355L509 481L548 481L548 553L587 553L587 481L626 481L626 469L665 469L665 523L704 523L704 505L743 505L743 469L783 469L783 487L822 487L822 391L861 391L861 415L900 415L900 493L900 449L900 413L861 413L861 359L822 359L822 449L783 449L783 443L743 443L743 425L704 425L704 431L665 431L665 449L626 449L626 371L587 371L587 509L548 509L548 401L509 401L509 293L470 293L470 395L430 395L430 581L391 581L391 389L352 389L352 377L313 377L313 353L274 353L274 437L235 437L235 299L196 299L196 287L157 287L157 437L117 437L117 347L78 347L78 491L39 491L39 305L0 305Z" fill="#70a84f"></path><path d="M0 493L39 493L39 577L78 577L78 589L117 589L117 577L157 577L157 463L196 463L196 559L235 559L235 589L274 589L274 493L313 493L313 493L352 493L352 541L391 541L391 595L430 595L430 529L470 529L470 601L509 601L509 547L548 547L548 565L587 565L587 571L626 571L626 505L665 505L665 553L704 553L704 577L743 577L743 595L783 595L783 487L822 487L822 577L861 577L861 601L900 601L900 517L900 491L900 413L861 413L861 389L822 389L822 485L783 485L783 467L743 467L743 503L704 503L704 521L665 521L665 467L626 467L626 479L587 479L587 551L548 551L548 479L509 479L509 353L470 353L470 503L430 503L430 593L391 593L391 419L352 419L352 479L313 479L313 449L274 449L274 467L235 467L235 383L196 383L196 305L157 305L157 551L117 551L117 377L78 377L78 539L39 539L39 317L0 317Z" fill="#449f62"></path><path d="M0 601L39 601L39 601L78 601L78 601L117 601L117 601L157 601L157 601L196 601L196 601L235 601L235 601L274 601L274 601L313 601L313 601L352 601L352 601L391 601L391 601L430 601L430 601L470 601L470 601L509 601L509 601L548 601L548 601L587 601L587 601L626 601L626 601L665 601L665 601L704 601L704 601L743 601L743 601L783 601L783 601L822 601L822 601L861 601L861 601L900 601L900 601L900 515L900 599L861 599L861 575L822 575L822 485L783 485L783 593L743 593L743 575L704 575L704 551L665 551L665 503L626 503L626 569L587 569L587 563L548 563L548 545L509 545L509 599L470 599L470 527L430 527L430 593L391 593L391 539L352 539L352 491L313 491L313 491L274 491L274 587L235 587L235 557L196 557L196 461L157 461L157 575L117 575L117 587L78 587L78 575L39 575L39 491L0 491Z" fill="#009473"></path></svg>