<svg id="visual" viewBox="0 0 900 600" width="900" height="600" xmlns="http://www.w3.org/2000/svg" xmlns:xlink="http://www.w3.org/1999/xlink" version="1.1"><rect x="0" y="0" width="900" height="600" fill="#808080"></rect><path d="M592 0L616 0L616 26L94 26L94 52L117 52L117 78L558 78L558 104L596 104L596 130L691 130L691 157L701 157L701 183L532 183L532 209L454 209L454 235L595 235L595 261L138 261L138 287L678 287L678 313L632 313L632 339L488 339L488 365L444 365L444 391L516 391L516 417L582 417L582 443L569 443L569 470L279 470L279 496L98 496L98 522L114 522L114 548L744 548L744 574L187 574L187 600L0 600L0 574L0 574L0 548L0 548L0 522L0 522L0 496L0 496L0 470L0 470L0 443L0 443L0 417L0 417L0 391L0 391L0 365L0 365L0 339L0 339L0 313L0 313L0 287L0 287L0 261L0 261L0 235L0 235L0 209L0 209L0 183L0 183L0 157L0 157L0 130L0 130L0 104L0 104L0 78L0 78L0 52L0 52L0 26L0 26L0 0L0 0Z" fill="#001122"></path><path d="M110 0L99 0L99 26L506 26L506 52L351 52L351 78L378 78L378 104L211 104L211 130L547 130L547 157L549 157L549 183L688 183L688 209L349 209L349 235L215 235L215 261L375 261L375 287L492 287L492 313L537 313L537 339L223 339L223 365L578 365L578 391L313 391L313 417L277 417L277 443L358 443L358 470L217 470L217 496L232 496L232 522L273 522L273 548L738 548L738 574L663 574L663 600L0 600L0 574L0 574L0 548L0 548L0 522L0 522L0 496L0 496L0 470L0 470L0 443L0 443L0 417L0 417L0 391L0 391L0 365L0 365L0 339L0 339L0 313L0 313L0 287L0 287L0 261L0 261L0 235L0 235L0 209L0 209L0 183L0 183L0 157L0 157L0 130L0 130L0 104L0 104L0 78L0 78L0 52L0 52L0 26L0 26L0 0L0 0Z" fill="#0d1b2a"></path><path d="M637 0L561 0L561 26L217 26L217 52L307 52L307 78L133 78L133 104L565 104L565 130L658 130L658 157L161 157L161 183L457 183L457 209L212 209L212 235L350 235L350 261L648 261L648 287L466 287L466 313L312 313L312 339L163 339L163 365L344 365L344 391L574 391L574 417L574 417L574 443L640 443L640 470L535 470L535 496L483 496L483 522L381 522L381 548L100 548L100 574L286 574L286 600L0 600L0 574L0 574L0 548L0 548L0 522L0 522L0 496L0 496L0 470L0 470L0 443L0 443L0 417L0 417L0 391L0 391L0 365L0 365L0 339L0 339L0 313L0 313L0 287L0 287L0 261L0 261L0 235L0 235L0 209L0 209L0 183L0 183L0 157L0 157L0 130L0 130L0 104L0 104L0 78L0 78L0 52L0 52L0 26L0 26L0 0L0 0Z" fill="#192332"></path><path d="M543 0L456 0L456 26L144 26L144 52L503 52L503 78L191 78L191 104L611 104L611 130L493 130L493 157L425 157L425 183L200 183L200 209L455 209L455 235L467 235L467 261L621 261L621 287L164 287L164 313L502 313L502 339L79 339L79 365L591 365L591 391L351 391L351 417L464 417L464 443L440 443L440 470L273 470L273 496L155 496L155 522L294 522L294 548L248 548L248 574L427 574L427 600L0 600L0 574L0 574L0 548L0 548L0 522L0 522L0 496L0 496L0 470L0 470L0 443L0 443L0 417L0 417L0 391L0 391L0 365L0 365L0 339L0 339L0 313L0 313L0 287L0 287L0 261L0 261L0 235L0 235L0 209L0 209L0 183L0 183L0 157L0 157L0 130L0 130L0 104L0 104L0 78L0 78L0 52L0 52L0 26L0 26L0 0L0 0Z" fill="#232d3a"></path><path d="M137 0L545 0L545 26L153 26L153 52L331 52L331 78L115 78L115 104L379 104L379 130L485 130L485 157L493 157L493 183L511 183L511 209L504 209L504 235L144 235L144 261L333 261L333 287L485 287L485 313L549 313L549 339L113 339L113 365L267 365L267 391L490 391L490 417L331 417L331 443L190 443L190 470L212 470L212 496L531 496L531 522L122 522L122 548L142 548L142 574L513 574L513 600L0 600L0 574L0 574L0 548L0 548L0 522L0 522L0 496L0 496L0 470L0 470L0 443L0 443L0 417L0 417L0 391L0 391L0 365L0 365L0 339L0 339L0 313L0 313L0 287L0 287L0 261L0 261L0 235L0 235L0 209L0 209L0 183L0 183L0 157L0 157L0 130L0 130L0 104L0 104L0 78L0 78L0 52L0 52L0 26L0 26L0 0L0 0Z" fill="#2e3642"></path><path d="M446 0L320 0L320 26L183 26L183 52L398 52L398 78L288 78L288 104L340 104L340 130L222 130L222 157L382 157L382 183L210 183L210 209L94 209L94 235L144 235L144 261L459 261L459 287L448 287L448 313L288 313L288 339L315 339L315 365L242 365L242 391L372 391L372 417L234 417L234 443L269 443L269 470L238 470L238 496L147 496L147 522L350 522L350 548L264 548L264 574L65 574L65 600L0 600L0 574L0 574L0 548L0 548L0 522L0 522L0 496L0 496L0 470L0 470L0 443L0 443L0 417L0 417L0 391L0 391L0 365L0 365L0 339L0 339L0 313L0 313L0 287L0 287L0 261L0 261L0 235L0 235L0 209L0 209L0 183L0 183L0 157L0 157L0 130L0 130L0 104L0 104L0 78L0 78L0 52L0 52L0 26L0 26L0 0L0 0Z" fill="#39404b"></path><path d="M349 0L294 0L294 26L348 26L348 52L311 52L311 78L264 78L264 104L231 104L231 130L170 130L170 157L182 157L182 183L314 183L314 209L386 209L386 235L312 235L312 261L431 261L431 287L363 287L363 313L299 313L299 339L71 339L71 365L317 365L317 391L140 391L140 417L353 417L353 443L308 443L308 470L345 470L345 496L151 496L151 522L402 522L402 548L313 548L313 574L315 574L315 600L0 600L0 574L0 574L0 548L0 548L0 522L0 522L0 496L0 496L0 470L0 470L0 443L0 443L0 417L0 417L0 391L0 391L0 365L0 365L0 339L0 339L0 313L0 313L0 287L0 287L0 261L0 261L0 235L0 235L0 209L0 209L0 183L0 183L0 157L0 157L0 130L0 130L0 104L0 104L0 78L0 78L0 52L0 52L0 26L0 26L0 0L0 0Z" fill="#454a53"></path><path d="M61 0L68 0L68 26L144 26L144 52L128 52L128 78L181 78L181 104L154 104L154 130L338 130L338 157L95 157L95 183L66 183L66 209L71 209L71 235L66 235L66 261L337 261L337 287L124 287L124 313L184 313L184 339L138 339L138 365L143 365L143 391L125 391L125 417L263 417L263 443L316 443L316 470L200 470L200 496L140 496L140 522L234 522L234 548L372 548L372 574L71 574L71 600L0 600L0 574L0 574L0 548L0 548L0 522L0 522L0 496L0 496L0 470L0 470L0 443L0 443L0 417L0 417L0 391L0 391L0 365L0 365L0 339L0 339L0 313L0 313L0 287L0 287L0 261L0 261L0 235L0 235L0 209L0 209L0 183L0 183L0 157L0 157L0 130L0 130L0 104L0 104L0 78L0 78L0 52L0 52L0 26L0 26L0 0L0 0Z" fill="#50545c"></path><path d="M187 0L250 0L250 26L285 26L285 52L118 52L118 78L204 78L204 104L300 104L300 130L83 130L83 157L68 157L68 183L131 183L131 209L138 209L138 235L166 235L166 261L181 261L181 287L144 287L144 313L236 313L236 339L124 339L124 365L138 365L138 391L64 391L64 417L271 417L271 443L36 443L36 470L66 470L66 496L183 496L183 522L259 522L259 548L47 548L47 574L281 574L281 600L0 600L0 574L0 574L0 548L0 548L0 522L0 522L0 496L0 496L0 470L0 470L0 443L0 443L0 417L0 417L0 391L0 391L0 365L0 365L0 339L0 339L0 313L0 313L0 287L0 287L0 261L0 261L0 235L0 235L0 209L0 209L0 183L0 183L0 157L0 157L0 130L0 130L0 104L0 104L0 78L0 78L0 52L0 52L0 26L0 26L0 0L0 0Z" fill="#5c5f65"></path><path d="M101 0L237 0L237 26L165 26L165 52L89 52L89 78L185 78L185 104L195 104L195 130L192 130L192 157L94 157L94 183L128 183L128 209L165 209L165 235L250 235L250 261L207 261L207 287L114 287L114 313L140 313L140 339L193 339L193 365L210 365L210 391L65 391L65 417L137 417L137 443L52 443L52 470L134 470L134 496L71 496L71 522L188 522L188 548L193 548L193 574L159 574L159 600L0 600L0 574L0 574L0 548L0 548L0 522L0 522L0 496L0 496L0 470L0 470L0 443L0 443L0 417L0 417L0 391L0 391L0 365L0 365L0 339L0 339L0 313L0 313L0 287L0 287L0 261L0 261L0 235L0 235L0 209L0 209L0 183L0 183L0 157L0 157L0 130L0 130L0 104L0 104L0 78L0 78L0 52L0 52L0 26L0 26L0 0L0 0Z" fill="#686a6e"></path><path d="M91 0L138 0L138 26L121 26L121 52L34 52L34 78L96 78L96 104L84 104L84 130L118 130L118 157L133 157L133 183L108 183L108 209L43 209L43 235L63 235L63 261L30 261L30 287L52 287L52 313L72 313L72 339L162 339L162 365L30 365L30 391L154 391L154 417L62 417L62 443L145 443L145 470L179 470L179 496L124 496L124 522L184 522L184 548L137 548L137 574L126 574L126 600L0 600L0 574L0 574L0 548L0 548L0 522L0 522L0 496L0 496L0 470L0 470L0 443L0 443L0 417L0 417L0 391L0 391L0 365L0 365L0 339L0 339L0 313L0 313L0 287L0 287L0 261L0 261L0 235L0 235L0 209L0 209L0 183L0 183L0 157L0 157L0 130L0 130L0 104L0 104L0 78L0 78L0 52L0 52L0 26L0 26L0 0L0 0Z" fill="#747577"></path><path d="M107 0L91 0L91 26L25 26L25 52L31 52L31 78L63 78L63 104L36 104L36 130L98 130L98 157L83 157L83 183L51 183L51 209L61 209L61 235L107 235L107 261L42 261L42 287L41 287L41 313L123 313L123 339L51 339L51 365L66 365L66 391L50 391L50 417L93 417L93 443L89 443L89 470L121 470L121 496L48 496L48 522L43 522L43 548L87 548L87 574L108 574L108 600L0 600L0 574L0 574L0 548L0 548L0 522L0 522L0 496L0 496L0 470L0 470L0 443L0 443L0 417L0 417L0 391L0 391L0 365L0 365L0 339L0 339L0 313L0 313L0 287L0 287L0 261L0 261L0 235L0 235L0 209L0 209L0 183L0 183L0 157L0 157L0 130L0 130L0 104L0 104L0 78L0 78L0 52L0 52L0 26L0 26L0 0L0 0Z" fill="#808080"></path></svg>