<svg id="visual" viewBox="0 0 900 600" width="900" height="600" xmlns="http://www.w3.org/2000/svg" xmlns:xlink="http://www.w3.org/1999/xlink" version="1.1"><path d="M0 25L6.5 23C13 21 26 17 39 19C52 21 65 29 78 31C91 33 104 29 117.2 29C130.3 29 143.7 33 156.8 28.8C170 24.7 183 12.3 196 8.3C209 4.3 222 8.7 235 8.7C248 8.7 261 4.3 274 5.3C287 6.3 300 12.7 313 17.8C326 23 339 27 352 25C365 23 378 15 391 16C404 17 417 27 430.2 29C443.3 31 456.7 25 469.8 24C483 23 496 27 509 26C522 25 535 19 548 15C561 11 574 9 587 6.8C600 4.7 613 2.3 626 5.3C639 8.3 652 16.7 665 21.8C678 27 691 29 704 29C717 29 730 27 743.2 26C756.3 25 769.7 25 782.8 23C796 21 809 17 822 17C835 17 848 21 861 23C874 25 887 25 893.5 25L900 25L900 0L893.5 0C887 0 874 0 861 0C848 0 835 0 822 0C809 0 796 0 782.8 0C769.7 0 756.3 0 743.2 0C730 0 717 0 704 0C691 0 678 0 665 0C652 0 639 0 626 0C613 0 600 0 587 0C574 0 561 0 548 0C535 0 522 0 509 0C496 0 483 0 469.8 0C456.7 0 443.3 0 430.2 0C417 0 404 0 391 0C378 0 365 0 352 0C339 0 326 0 313 0C300 0 287 0 274 0C261 0 248 0 235 0C222 0 209 0 196 0C183 0 170 0 156.8 0C143.7 0 130.3 0 117.2 0C104 0 91 0 78 0C65 0 52 0 39 0C26 0 13 0 6.5 0L0 0Z" fill="#6198ff"></path><path d="M0 61L6.5 55C13 49 26 37 39 36C52 35 65 45 78 46C91 47 104 39 117.2 38C130.3 37 143.7 43 156.8 46C170 49 183 49 196 44C209 39 222 29 235 23C248 17 261 15 274 23C287 31 300 49 313 54C326 59 339 51 352 46C365 41 378 39 391 42C404 45 417 53 430.2 51C443.3 49 456.7 37 469.8 39C483 41 496 57 509 61C522 65 535 57 548 52C561 47 574 45 587 47C600 49 613 55 626 53C639 51 652 41 665 41C678 41 691 51 704 56C717 61 730 61 743.2 57C756.3 53 769.7 45 782.8 40C796 35 809 33 822 32C835 31 848 31 861 36C874 41 887 51 893.5 56L900 61L900 23L893.5 23C887 23 874 23 861 21C848 19 835 15 822 15C809 15 796 19 782.8 21C769.7 23 756.3 23 743.2 24C730 25 717 27 704 27C691 27 678 25 665 20.2C652 15.3 639 7.7 626 4.7C613 1.7 600 3.3 587 5.2C574 7 561 9 548 13C535 17 522 23 509 24C496 25 483 21 469.8 22C456.7 23 443.3 29 430.2 27C417 25 404 15 391 14C378 13 365 21 352 23C339 25 326 21 313 16.2C300 11.3 287 5.7 274 4.7C261 3.7 248 7.3 235 7.3C222 7.3 209 3.7 196 7.7C183 11.7 170 23.3 156.8 27.2C143.7 31 130.3 27 117.2 27C104 27 91 31 78 29C65 27 52 19 39 17C26 15 13 19 6.5 21L0 23Z" fill="#548fff"></path><path d="M0 115L6.5 107C13 99 26 83 39 81C52 79 65 91 78 87C91 83 104 63 117.2 64C130.3 65 143.7 87 156.8 97C170 107 183 105 196 99C209 93 222 83 235 77C248 71 261 69 274 71C287 73 300 79 313 82C326 85 339 85 352 81C365 77 378 69 391 67C404 65 417 69 430.2 69C443.3 69 456.7 65 469.8 69C483 73 496 85 509 86C522 87 535 77 548 73C561 69 574 71 587 78C600 85 613 97 626 98C639 99 652 89 665 92C678 95 691 111 704 116C717 121 730 115 743.2 106C756.3 97 769.7 85 782.8 77C796 69 809 65 822 70C835 75 848 89 861 98C874 107 887 111 893.5 113L900 115L900 59L893.5 54C887 49 874 39 861 34C848 29 835 29 822 30C809 31 796 33 782.8 38C769.7 43 756.3 51 743.2 55C730 59 717 59 704 54C691 49 678 39 665 39C652 39 639 49 626 51C613 53 600 47 587 45C574 43 561 45 548 50C535 55 522 63 509 59C496 55 483 39 469.8 37C456.7 35 443.3 47 430.2 49C417 51 404 43 391 40C378 37 365 39 352 44C339 49 326 57 313 52C300 47 287 29 274 21C261 13 248 15 235 21C222 27 209 37 196 42C183 47 170 47 156.8 44C143.7 41 130.3 35 117.2 36C104 37 91 45 78 44C65 43 52 33 39 34C26 35 13 47 6.5 53L0 59Z" fill="#4686ff"></path><path d="M0 187L6.5 186C13 185 26 183 39 178C52 173 65 165 78 158C91 151 104 145 117.2 147C130.3 149 143.7 159 156.8 171C170 183 183 197 196 198C209 199 222 187 235 171C248 155 261 135 274 143C287 151 300 187 313 203C326 219 339 215 352 191C365 167 378 123 391 103C404 83 417 87 430.2 93C443.3 99 456.7 107 469.8 122C483 137 496 159 509 175C522 191 535 201 548 204C561 207 574 203 587 195C600 187 613 175 626 170C639 165 652 167 665 169C678 171 691 173 704 185C717 197 730 219 743.2 219C756.3 219 769.7 197 782.8 180C796 163 809 151 822 142C835 133 848 127 861 126C874 125 887 129 893.5 131L900 133L900 113L893.5 111C887 109 874 105 861 96C848 87 835 73 822 68C809 63 796 67 782.8 75C769.7 83 756.3 95 743.2 104C730 113 717 119 704 114C691 109 678 93 665 90C652 87 639 97 626 96C613 95 600 83 587 76C574 69 561 67 548 71C535 75 522 85 509 84C496 83 483 71 469.8 67C456.7 63 443.3 67 430.2 67C417 67 404 63 391 65C378 67 365 75 352 79C339 83 326 83 313 80C300 77 287 71 274 69C261 67 248 69 235 75C222 81 209 91 196 97C183 103 170 105 156.8 95C143.7 85 130.3 63 117.2 62C104 61 91 81 78 85C65 89 52 77 39 79C26 81 13 97 6.5 105L0 113Z" fill="#387dff"></path><path d="M0 271L6.5 275C13 279 26 287 39 275C52 263 65 231 78 211C91 191 104 183 117.2 182C130.3 181 143.7 187 156.8 208C170 229 183 265 196 296C209 327 222 353 235 349C248 345 261 311 274 311C287 311 300 345 313 353C326 361 339 343 352 341C365 339 378 353 391 334C404 315 417 263 430.2 228C443.3 193 456.7 175 469.8 195C483 215 496 273 509 285C522 297 535 263 548 260C561 257 574 285 587 317C600 349 613 385 626 384C639 383 652 345 665 313C678 281 691 255 704 254C717 253 730 277 743.2 292C756.3 307 769.7 313 782.8 320C796 327 809 335 822 321C835 307 848 271 861 239C874 207 887 179 893.5 165L900 151L900 131L893.5 129C887 127 874 123 861 124C848 125 835 131 822 140C809 149 796 161 782.8 178C769.7 195 756.3 217 743.2 217C730 217 717 195 704 183C691 171 678 169 665 167C652 165 639 163 626 168C613 173 600 185 587 193C574 201 561 205 548 202C535 199 522 189 509 173C496 157 483 135 469.8 120C456.7 105 443.3 97 430.2 91C417 85 404 81 391 101C378 121 365 165 352 189C339 213 326 217 313 201C300 185 287 149 274 141C261 133 248 153 235 169C222 185 209 197 196 196C183 195 170 181 156.8 169C143.7 157 130.3 147 117.2 145C104 143 91 149 78 156C65 163 52 171 39 176C26 181 13 183 6.5 184L0 185Z" fill="#2874ff"></path><path d="M0 373L6.5 370C13 367 26 361 39 373C52 385 65 415 78 412C91 409 104 373 117.2 358C130.3 343 143.7 349 156.8 354C170 359 183 363 196 375C209 387 222 407 235 409C248 411 261 395 274 398C287 401 300 423 313 428C326 433 339 421 352 415C365 409 378 409 391 397C404 385 417 361 430.2 370C443.3 379 456.7 421 469.8 437C483 453 496 443 509 438C522 433 535 433 548 424C561 415 574 397 587 401C600 405 613 431 626 432C639 433 652 409 665 397C678 385 691 385 704 391C717 397 730 409 743.2 418C756.3 427 769.7 433 782.8 432C796 431 809 423 822 413C835 403 848 391 861 381C874 371 887 363 893.5 359L900 355L900 149L893.5 163C887 177 874 205 861 237C848 269 835 305 822 319C809 333 796 325 782.8 318C769.7 311 756.3 305 743.2 290C730 275 717 251 704 252C691 253 678 279 665 311C652 343 639 381 626 382C613 383 600 347 587 315C574 283 561 255 548 258C535 261 522 295 509 283C496 271 483 213 469.8 193C456.7 173 443.3 191 430.2 226C417 261 404 313 391 332C378 351 365 337 352 339C339 341 326 359 313 351C300 343 287 309 274 309C261 309 248 343 235 347C222 351 209 325 196 294C183 263 170 227 156.8 206C143.7 185 130.3 179 117.2 180C104 181 91 189 78 209C65 229 52 261 39 273C26 285 13 277 6.5 273L0 269Z" fill="#126bff"></path><path d="M0 421L6.5 418C13 415 26 409 39 418C52 427 65 451 78 452C91 453 104 431 117.2 423C130.3 415 143.7 421 156.8 423C170 425 183 423 196 425C209 427 222 433 235 439C248 445 261 451 274 457C287 463 300 469 313 476C326 483 339 491 352 486C365 481 378 463 391 450C404 437 417 429 430.2 434C443.3 439 456.7 457 469.8 470C483 483 496 491 509 496C522 501 535 503 548 497C561 491 574 477 587 470C600 463 613 463 626 464C639 465 652 467 665 461C678 455 691 441 704 435C717 429 730 431 743.2 443C756.3 455 769.7 477 782.8 478C796 479 809 459 822 449C835 439 848 439 861 436C874 433 887 427 893.5 424L900 421L900 353L893.5 357C887 361 874 369 861 379C848 389 835 401 822 411C809 421 796 429 782.8 430C769.7 431 756.3 425 743.2 416C730 407 717 395 704 389C691 383 678 383 665 395C652 407 639 431 626 430C613 429 600 403 587 399C574 395 561 413 548 422C535 431 522 431 509 436C496 441 483 451 469.8 435C456.7 419 443.3 377 430.2 368C417 359 404 383 391 395C378 407 365 407 352 413C339 419 326 431 313 426C300 421 287 399 274 396C261 393 248 409 235 407C222 405 209 385 196 373C183 361 170 357 156.8 352C143.7 347 130.3 341 117.2 356C104 371 91 407 78 410C65 413 52 383 39 371C26 359 13 365 6.5 368L0 371Z" fill="#0064f9"></path><path d="M0 463L6.5 454C13 445 26 427 39 434C52 441 65 473 78 478C91 483 104 461 117.2 454C130.3 447 143.7 455 156.8 460C170 465 183 467 196 467C209 467 222 465 235 468C248 471 261 479 274 488C287 497 300 507 313 509C326 511 339 505 352 499C365 493 378 487 391 479C404 471 417 461 430.2 465C443.3 469 456.7 487 469.8 499C483 511 496 517 509 524C522 531 535 539 548 535C561 531 574 515 587 502C600 489 613 479 626 475C639 471 652 473 665 466C678 459 691 443 704 442C717 441 730 455 743.2 471C756.3 487 769.7 505 782.8 507C796 509 809 495 822 485C835 475 848 469 861 465C874 461 887 459 893.5 458L900 457L900 419L893.5 422C887 425 874 431 861 434C848 437 835 437 822 447C809 457 796 477 782.8 476C769.7 475 756.3 453 743.2 441C730 429 717 427 704 433C691 439 678 453 665 459C652 465 639 463 626 462C613 461 600 461 587 468C574 475 561 489 548 495C535 501 522 499 509 494C496 489 483 481 469.8 468C456.7 455 443.3 437 430.2 432C417 427 404 435 391 448C378 461 365 479 352 484C339 489 326 481 313 474C300 467 287 461 274 455C261 449 248 443 235 437C222 431 209 425 196 423C183 421 170 423 156.8 421C143.7 419 130.3 413 117.2 421C104 429 91 451 78 450C65 449 52 425 39 416C26 407 13 413 6.5 416L0 419Z" fill="#005fec"></path><path d="M0 487L6.5 481C13 475 26 463 39 468C52 473 65 495 78 494C91 493 104 469 117.2 466C130.3 463 143.7 481 156.8 492C170 503 183 507 196 508C209 509 222 507 235 504C248 501 261 497 274 505C287 513 300 533 313 540C326 547 339 541 352 537C365 533 378 531 391 521C404 511 417 493 430.2 495C443.3 497 456.7 519 469.8 531C483 543 496 545 509 552C522 559 535 571 548 565C561 559 574 535 587 519C600 503 613 495 626 496C639 497 652 507 665 500C678 493 691 469 704 469C717 469 730 493 743.2 511C756.3 529 769.7 541 782.8 536C796 531 809 509 822 496C835 483 848 479 861 474C874 469 887 463 893.5 460L900 457L900 455L893.5 456C887 457 874 459 861 463C848 467 835 473 822 483C809 493 796 507 782.8 505C769.7 503 756.3 485 743.2 469C730 453 717 439 704 440C691 441 678 457 665 464C652 471 639 469 626 473C613 477 600 487 587 500C574 513 561 529 548 533C535 537 522 529 509 522C496 515 483 509 469.8 497C456.7 485 443.3 467 430.2 463C417 459 404 469 391 477C378 485 365 491 352 497C339 503 326 509 313 507C300 505 287 495 274 486C261 477 248 469 235 466C222 463 209 465 196 465C183 465 170 463 156.8 458C143.7 453 130.3 445 117.2 452C104 459 91 481 78 476C65 471 52 439 39 432C26 425 13 443 6.5 452L0 461Z" fill="#005ae0"></path><path d="M0 535L6.5 532C13 529 26 523 39 526C52 529 65 541 78 539C91 537 104 521 117.2 517C130.3 513 143.7 521 156.8 525C170 529 183 529 196 531C209 533 222 537 235 535C248 533 261 525 274 529C287 533 300 549 313 554C326 559 339 553 352 550C365 547 378 547 391 540C404 533 417 519 430.2 520C443.3 521 456.7 537 469.8 547C483 557 496 561 509 567C522 573 535 581 548 574C561 567 574 545 587 532C600 519 613 515 626 517C639 519 652 527 665 524C678 521 691 507 704 508C717 509 730 525 743.2 536C756.3 547 769.7 553 782.8 548C796 543 809 527 822 520C835 513 848 515 861 517C874 519 887 521 893.5 522L900 523L900 455L893.5 458C887 461 874 467 861 472C848 477 835 481 822 494C809 507 796 529 782.8 534C769.7 539 756.3 527 743.2 509C730 491 717 467 704 467C691 467 678 491 665 498C652 505 639 495 626 494C613 493 600 501 587 517C574 533 561 557 548 563C535 569 522 557 509 550C496 543 483 541 469.8 529C456.7 517 443.3 495 430.2 493C417 491 404 509 391 519C378 529 365 531 352 535C339 539 326 545 313 538C300 531 287 511 274 503C261 495 248 499 235 502C222 505 209 507 196 506C183 505 170 501 156.8 490C143.7 479 130.3 461 117.2 464C104 467 91 491 78 492C65 493 52 471 39 466C26 461 13 473 6.5 479L0 485Z" fill="#0055d3"></path><path d="M0 565L6.5 564C13 563 26 561 39 562C52 563 65 567 78 567C91 567 104 563 117.2 564C130.3 565 143.7 571 156.8 577C170 583 183 589 196 585C209 581 222 567 235 567C248 567 261 581 274 588C287 595 300 595 313 588C326 581 339 567 352 565C365 563 378 573 391 574C404 575 417 567 430.2 566C443.3 565 456.7 571 469.8 577C483 583 496 589 509 592C522 595 535 595 548 593C561 591 574 587 587 584C600 581 613 579 626 577C639 575 652 573 665 570C678 567 691 563 704 563C717 563 730 567 743.2 571C756.3 575 769.7 579 782.8 578C796 577 809 571 822 573C835 575 848 585 861 586C874 587 887 579 893.5 575L900 571L900 521L893.5 520C887 519 874 517 861 515C848 513 835 511 822 518C809 525 796 541 782.8 546C769.7 551 756.3 545 743.2 534C730 523 717 507 704 506C691 505 678 519 665 522C652 525 639 517 626 515C613 513 600 517 587 530C574 543 561 565 548 572C535 579 522 571 509 565C496 559 483 555 469.8 545C456.7 535 443.3 519 430.2 518C417 517 404 531 391 538C378 545 365 545 352 548C339 551 326 557 313 552C300 547 287 531 274 527C261 523 248 531 235 533C222 535 209 531 196 529C183 527 170 527 156.8 523C143.7 519 130.3 511 117.2 515C104 519 91 535 78 537C65 539 52 527 39 524C26 521 13 527 6.5 530L0 533Z" fill="#0051c7"></path><path d="M0 601L6.5 601C13 601 26 601 39 601C52 601 65 601 78 601C91 601 104 601 117.2 601C130.3 601 143.7 601 156.8 601C170 601 183 601 196 601C209 601 222 601 235 601C248 601 261 601 274 601C287 601 300 601 313 601C326 601 339 601 352 601C365 601 378 601 391 601C404 601 417 601 430.2 601C443.3 601 456.7 601 469.8 601C483 601 496 601 509 601C522 601 535 601 548 601C561 601 574 601 587 601C600 601 613 601 626 601C639 601 652 601 665 601C678 601 691 601 704 601C717 601 730 601 743.2 601C756.3 601 769.7 601 782.8 601C796 601 809 601 822 601C835 601 848 601 861 601C874 601 887 601 893.5 601L900 601L900 569L893.5 573C887 577 874 585 861 584C848 583 835 573 822 571C809 569 796 575 782.8 576C769.7 577 756.3 573 743.2 569C730 565 717 561 704 561C691 561 678 565 665 568C652 571 639 573 626 575C613 577 600 579 587 582C574 585 561 589 548 591C535 593 522 593 509 590C496 587 483 581 469.8 575C456.7 569 443.3 563 430.2 564C417 565 404 573 391 572C378 571 365 561 352 563C339 565 326 579 313 586C300 593 287 593 274 586C261 579 248 565 235 565C222 565 209 579 196 583C183 587 170 581 156.8 575C143.7 569 130.3 563 117.2 562C104 561 91 565 78 565C65 565 52 561 39 560C26 559 13 561 6.5 562L0 563Z" fill="#004cbb"></path></svg>