<svg id="visual" viewBox="0 0 900 600" width="900" height="600" xmlns="http://www.w3.org/2000/svg" xmlns:xlink="http://www.w3.org/1999/xlink" version="1.1"><rect x="0" y="0" width="900" height="600" fill="#931C1C"></rect><path d="M0 235L64 281L129 249L193 226L257 265L321 302L386 249L450 223L514 195L579 202L643 289L707 217L771 206L836 246L900 273L900 0L836 0L771 0L707 0L643 0L579 0L514 0L450 0L386 0L321 0L257 0L193 0L129 0L64 0L0 0Z" fill="#871400"></path><path d="M0 172L64 217L129 217L193 240L257 210L321 206L386 166L450 236L514 193L579 220L643 173L707 204L771 256L836 247L900 247L900 0L836 0L771 0L707 0L643 0L579 0L514 0L450 0L386 0L321 0L257 0L193 0L129 0L64 0L0 0Z" fill="#992503"></path><path d="M0 212L64 181L129 207L193 206L257 205L321 139L386 161L450 171L514 136L579 143L643 163L707 185L771 192L836 172L900 166L900 0L836 0L771 0L707 0L643 0L579 0L514 0L450 0L386 0L321 0L257 0L193 0L129 0L64 0L0 0Z" fill="#ac3505"></path><path d="M0 160L64 168L129 159L193 132L257 184L321 180L386 149L450 122L514 158L579 184L643 160L707 168L771 118L836 157L900 146L900 0L836 0L771 0L707 0L643 0L579 0L514 0L450 0L386 0L321 0L257 0L193 0L129 0L64 0L0 0Z" fill="#be4407"></path><path d="M0 111L64 118L129 91L193 113L257 114L321 94L386 119L450 112L514 81L579 144L643 80L707 104L771 101L836 97L900 140L900 0L836 0L771 0L707 0L643 0L579 0L514 0L450 0L386 0L321 0L257 0L193 0L129 0L64 0L0 0Z" fill="#d15308"></path><path d="M0 66L64 50L129 98L193 101L257 87L321 64L386 101L450 75L514 99L579 51L643 81L707 72L771 63L836 94L900 79L900 0L836 0L771 0L707 0L643 0L579 0L514 0L450 0L386 0L321 0L257 0L193 0L129 0L64 0L0 0Z" fill="#e3630a"></path><path d="M0 24L64 23L129 53L193 23L257 66L321 45L386 54L450 37L514 60L579 53L643 49L707 50L771 39L836 59L900 22L900 0L836 0L771 0L707 0L643 0L579 0L514 0L450 0L386 0L321 0L257 0L193 0L129 0L64 0L0 0Z" fill="#f5730a"></path></svg>