<svg id="visual" viewBox="0 0 900 600" width="900" height="600" xmlns="http://www.w3.org/2000/svg" xmlns:xlink="http://www.w3.org/1999/xlink" version="1.1"><g stroke-width="1" stroke-linejoin="bevel"><path d="M441 330L448 348.6L493 332Z" fill="#81166b" stroke="#81166b"></path><path d="M493 332L499 288.3L441 330Z" fill="#001122" stroke="#001122"></path><path d="M499 288.3L482 266.9L441 330Z" fill="#3c245d" stroke="#3c245d"></path><path d="M540 327.1L538 323L493 332Z" fill="#5e2167" stroke="#5e2167"></path><path d="M493 332L538 323L499 288.3Z" fill="#3c245d" stroke="#3c245d"></path><path d="M499 288.3L484 261.3L482 266.9Z" fill="#a40067" stroke="#a40067"></path><path d="M532 275.3L484 261.3L499 288.3Z" fill="#f30031" stroke="#f30031"></path><path d="M482 266.9L417 277.9L441 330Z" fill="#df004a" stroke="#df004a"></path><path d="M484 261.3L417 277.9L482 266.9Z" fill="#a40067" stroke="#a40067"></path><path d="M441 330L392 380.4L448 348.6Z" fill="#1e214c" stroke="#1e214c"></path><path d="M529 402.9L540 327.1L493 332Z" fill="#081b38" stroke="#081b38"></path><path d="M417 277.9L395 315.7L441 330Z" fill="#3c245d" stroke="#3c245d"></path><path d="M392 380.4L439 400.6L448 348.6Z" fill="#001122" stroke="#001122"></path><path d="M448 348.6L466 407.6L493 332Z" fill="#c4005c" stroke="#c4005c"></path><path d="M439 400.6L466 407.6L448 348.6Z" fill="#001122" stroke="#001122"></path><path d="M542 282.1L499 288.3L538 323Z" fill="#081b38" stroke="#081b38"></path><path d="M542 282.1L532 275.3L499 288.3Z" fill="#3c245d" stroke="#3c245d"></path><path d="M590 337.6L542 282.1L538 323Z" fill="#081b38" stroke="#081b38"></path><path d="M395 315.7L392 380.4L441 330Z" fill="#ff3400" stroke="#ff3400"></path><path d="M466 407.6L529 402.9L493 332Z" fill="#81166b" stroke="#81166b"></path><path d="M315 298.9L369 343.7L395 315.7Z" fill="#081b38" stroke="#081b38"></path><path d="M395 315.7L369 343.7L392 380.4Z" fill="#df004a" stroke="#df004a"></path><path d="M529 402.9L565 347.1L540 327.1Z" fill="#c4005c" stroke="#c4005c"></path><path d="M540 327.1L590 337.6L538 323Z" fill="#a40067" stroke="#a40067"></path><path d="M532 275.3L495 232.3L484 261.3Z" fill="#ff3400" stroke="#ff3400"></path><path d="M484 261.3L429 204.6L417 277.9Z" fill="#a40067" stroke="#a40067"></path><path d="M530 219.4L495 232.3L532 275.3Z" fill="#081b38" stroke="#081b38"></path><path d="M530 219.4L492 227L495 232.3Z" fill="#ff3400" stroke="#ff3400"></path><path d="M495 232.3L492 227L484 261.3Z" fill="#f30031" stroke="#f30031"></path><path d="M439 400.6L463 439.7L466 407.6Z" fill="#c4005c" stroke="#c4005c"></path><path d="M466 407.6L463 439.7L529 402.9Z" fill="#81166b" stroke="#81166b"></path><path d="M454 451.6L463 439.7L439 400.6Z" fill="#5e2167" stroke="#5e2167"></path><path d="M566 400.4L554 397.7L563 407.4Z" fill="#5e2167" stroke="#5e2167"></path><path d="M529 402.9L554 397.7L565 347.1Z" fill="#f30031" stroke="#f30031"></path><path d="M369 343.7L366 391L392 380.4Z" fill="#081b38" stroke="#081b38"></path><path d="M392 380.4L380 411.9L439 400.6Z" fill="#df004a" stroke="#df004a"></path><path d="M366 391L380 411.9L392 380.4Z" fill="#081b38" stroke="#081b38"></path><path d="M563 407.4L554 397.7L529 402.9Z" fill="#1e214c" stroke="#1e214c"></path><path d="M554 397.7L566 400.4L565 347.1Z" fill="#ff3400" stroke="#ff3400"></path><path d="M404 448.7L454 451.6L439 400.6Z" fill="#ff3400" stroke="#ff3400"></path><path d="M574 468.1L563 407.4L529 402.9Z" fill="#001122" stroke="#001122"></path><path d="M487 493.3L529 402.9L463 439.7Z" fill="#081b38" stroke="#081b38"></path><path d="M589 359L590 337.6L565 347.1Z" fill="#f30031" stroke="#f30031"></path><path d="M565 347.1L590 337.6L540 327.1Z" fill="#df004a" stroke="#df004a"></path><path d="M566 400.4L589 359L565 347.1Z" fill="#c4005c" stroke="#c4005c"></path><path d="M615 351L589 359L644 407.6Z" fill="#5e2167" stroke="#5e2167"></path><path d="M347 418.6L380 422.9L380 411.9Z" fill="#001122" stroke="#001122"></path><path d="M380 411.9L380 422.9L439 400.6Z" fill="#1e214c" stroke="#1e214c"></path><path d="M580 215.4L532 275.3L542 282.1Z" fill="#81166b" stroke="#81166b"></path><path d="M580 215.4L530 219.4L532 275.3Z" fill="#df004a" stroke="#df004a"></path><path d="M429 204.6L379 234.1L417 277.9Z" fill="#f30031" stroke="#f30031"></path><path d="M417 277.9L379 234.1L395 315.7Z" fill="#1e214c" stroke="#1e214c"></path><path d="M429 204.6L484 261.3L492 227Z" fill="#f30031" stroke="#f30031"></path><path d="M483 183.1L429 204.6L492 227Z" fill="#f30031" stroke="#f30031"></path><path d="M380 422.9L404 448.7L439 400.6Z" fill="#81166b" stroke="#81166b"></path><path d="M564 201.4L522 203.1L530 219.4Z" fill="#ff3400" stroke="#ff3400"></path><path d="M530 219.4L522 203.1L492 227Z" fill="#081b38" stroke="#081b38"></path><path d="M429 204.6L387 211.4L379 234.1Z" fill="#81166b" stroke="#81166b"></path><path d="M413 157.4L411 196.1L429 204.6Z" fill="#df004a" stroke="#df004a"></path><path d="M429 204.6L411 196.1L387 211.4Z" fill="#ff3400" stroke="#ff3400"></path><path d="M522 203.1L483 183.1L492 227Z" fill="#df004a" stroke="#df004a"></path><path d="M292 351L347 418.6L366 391Z" fill="#f30031" stroke="#f30031"></path><path d="M366 391L347 418.6L380 411.9Z" fill="#81166b" stroke="#81166b"></path><path d="M380 422.9L350 483.4L404 448.7Z" fill="#f30031" stroke="#f30031"></path><path d="M292 351L366 391L369 343.7Z" fill="#c4005c" stroke="#c4005c"></path><path d="M589 359L615 351L590 337.6Z" fill="#1e214c" stroke="#1e214c"></path><path d="M610 223.3L580 215.4L542 282.1Z" fill="#3c245d" stroke="#3c245d"></path><path d="M653 354.7L615 351L644 407.6Z" fill="#001122" stroke="#001122"></path><path d="M329 199.3L315 298.9L379 234.1Z" fill="#f30031" stroke="#f30031"></path><path d="M379 234.1L315 298.9L395 315.7Z" fill="#5e2167" stroke="#5e2167"></path><path d="M610 223.3L542 282.1L590 337.6Z" fill="#1e214c" stroke="#1e214c"></path><path d="M517 122.7L474 151.6L483 183.1Z" fill="#1e214c" stroke="#1e214c"></path><path d="M580 215.4L564 201.4L530 219.4Z" fill="#c4005c" stroke="#c4005c"></path><path d="M418 532.4L487 493.3L454 451.6Z" fill="#c4005c" stroke="#c4005c"></path><path d="M454 451.6L487 493.3L463 439.7Z" fill="#c4005c" stroke="#c4005c"></path><path d="M653 354.7L633 335.7L615 351Z" fill="#081b38" stroke="#081b38"></path><path d="M491 522.4L487 493.3L450 549.4Z" fill="#081b38" stroke="#081b38"></path><path d="M644 407.6L566 400.4L630 434.9Z" fill="#f30031" stroke="#f30031"></path><path d="M615 351L633 335.7L590 337.6Z" fill="#f30031" stroke="#f30031"></path><path d="M474 151.6L457 161.4L483 183.1Z" fill="#c4005c" stroke="#c4005c"></path><path d="M483 183.1L457 161.4L429 204.6Z" fill="#c4005c" stroke="#c4005c"></path><path d="M365 167.7L360 194.1L387 211.4Z" fill="#5e2167" stroke="#5e2167"></path><path d="M580 215.4L567 190.6L564 201.4Z" fill="#081b38" stroke="#081b38"></path><path d="M564 201.4L567 190.6L522 203.1Z" fill="#81166b" stroke="#81166b"></path><path d="M365 167.7L387 211.4L411 196.1Z" fill="#5e2167" stroke="#5e2167"></path><path d="M387 211.4L360 194.1L379 234.1Z" fill="#81166b" stroke="#81166b"></path><path d="M487 493.3L574 468.1L529 402.9Z" fill="#81166b" stroke="#81166b"></path><path d="M285 315.9L292 351L315 298.9Z" fill="#f30031" stroke="#f30031"></path><path d="M315 298.9L292 351L369 343.7Z" fill="#a40067" stroke="#a40067"></path><path d="M639 232.4L610 223.3L590 337.6Z" fill="#df004a" stroke="#df004a"></path><path d="M580 215.4L624 199.1L567 190.6Z" fill="#001122" stroke="#001122"></path><path d="M475 137.3L474 151.6L517 122.7Z" fill="#1e214c" stroke="#1e214c"></path><path d="M457 161.4L413 157.4L429 204.6Z" fill="#f30031" stroke="#f30031"></path><path d="M407 118.7L413 157.4L457 161.4Z" fill="#1e214c" stroke="#1e214c"></path><path d="M229 257L285 315.9L315 298.9Z" fill="#c4005c" stroke="#c4005c"></path><path d="M639 232.4L614 216.6L610 223.3Z" fill="#c4005c" stroke="#c4005c"></path><path d="M610 223.3L614 216.6L580 215.4Z" fill="#001122" stroke="#001122"></path><path d="M267 445.3L330 458.7L347 418.6Z" fill="#5e2167" stroke="#5e2167"></path><path d="M347 418.6L330 458.7L380 422.9Z" fill="#df004a" stroke="#df004a"></path><path d="M644 407.6L589 359L566 400.4Z" fill="#a40067" stroke="#a40067"></path><path d="M633 335.7L639 232.4L590 337.6Z" fill="#df004a" stroke="#df004a"></path><path d="M365 167.7L329 199.3L360 194.1Z" fill="#001122" stroke="#001122"></path><path d="M360 194.1L329 199.3L379 234.1Z" fill="#1e214c" stroke="#1e214c"></path><path d="M330 458.7L350 483.4L380 422.9Z" fill="#c4005c" stroke="#c4005c"></path><path d="M413 157.4L365 167.7L411 196.1Z" fill="#3c245d" stroke="#3c245d"></path><path d="M630 434.9L566 400.4L563 407.4Z" fill="#081b38" stroke="#081b38"></path><path d="M418 532.4L454 451.6L404 448.7Z" fill="#3c245d" stroke="#3c245d"></path><path d="M487 493.3L491 522.4L574 468.1Z" fill="#a40067" stroke="#a40067"></path><path d="M574 468.1L630 434.9L563 407.4Z" fill="#081b38" stroke="#081b38"></path><path d="M627 456.7L630 434.9L574 468.1Z" fill="#081b38" stroke="#081b38"></path><path d="M517 122.7L483 183.1L522 203.1Z" fill="#1e214c" stroke="#1e214c"></path><path d="M474 151.6L475 137.3L457 161.4Z" fill="#f30031" stroke="#f30031"></path><path d="M413 157.4L389 129.9L365 167.7Z" fill="#5e2167" stroke="#5e2167"></path><path d="M517 122.7L522 203.1L567 190.6Z" fill="#001122" stroke="#001122"></path><path d="M285 315.9L270 336L292 351Z" fill="#001122" stroke="#001122"></path><path d="M292 351L263 409.6L347 418.6Z" fill="#5e2167" stroke="#5e2167"></path><path d="M263 323.7L270 336L285 315.9Z" fill="#001122" stroke="#001122"></path><path d="M668 294L639 232.4L633 335.7Z" fill="#3c245d" stroke="#3c245d"></path><path d="M330 458.7L335 479.6L350 483.4Z" fill="#a40067" stroke="#a40067"></path><path d="M350 483.4L354 503.1L404 448.7Z" fill="#1e214c" stroke="#1e214c"></path><path d="M259 481.3L335 479.6L330 458.7Z" fill="#081b38" stroke="#081b38"></path><path d="M630 434.9L645 420.9L644 407.6Z" fill="#3c245d" stroke="#3c245d"></path><path d="M644 407.6L718 423.9L653 354.7Z" fill="#c4005c" stroke="#c4005c"></path><path d="M626 515.3L627 456.7L574 468.1Z" fill="#001122" stroke="#001122"></path><path d="M630 434.9L655 441.6L645 420.9Z" fill="#a40067" stroke="#a40067"></path><path d="M229 257L263 323.7L285 315.9Z" fill="#c4005c" stroke="#c4005c"></path><path d="M270 336L263 409.6L292 351Z" fill="#001122" stroke="#001122"></path><path d="M691 273L668 294L702 272.1Z" fill="#f30031" stroke="#f30031"></path><path d="M653 354.7L668 294L633 335.7Z" fill="#001122" stroke="#001122"></path><path d="M633 201.4L614 216.6L639 232.4Z" fill="#5e2167" stroke="#5e2167"></path><path d="M633 201.4L624 199.1L614 216.6Z" fill="#c4005c" stroke="#c4005c"></path><path d="M614 216.6L624 199.1L580 215.4Z" fill="#df004a" stroke="#df004a"></path><path d="M335 479.6L354 503.1L350 483.4Z" fill="#3c245d" stroke="#3c245d"></path><path d="M385 526.3L418 532.4L404 448.7Z" fill="#3c245d" stroke="#3c245d"></path><path d="M664 194.1L633 201.4L639 232.4Z" fill="#081b38" stroke="#081b38"></path><path d="M586 152.3L517 122.7L567 190.6Z" fill="#ff3400" stroke="#ff3400"></path><path d="M354 503.1L385 526.3L404 448.7Z" fill="#5e2167" stroke="#5e2167"></path><path d="M586 152.3L567 190.6L624 199.1Z" fill="#1e214c" stroke="#1e214c"></path><path d="M407 118.7L389 129.9L413 157.4Z" fill="#1e214c" stroke="#1e214c"></path><path d="M627 120.6L586 152.3L624 199.1Z" fill="#df004a" stroke="#df004a"></path><path d="M407 118.7L457 161.4L475 137.3Z" fill="#df004a" stroke="#df004a"></path><path d="M365 167.7L313 179.6L329 199.3Z" fill="#f30031" stroke="#f30031"></path><path d="M355 105.6L313 179.6L365 167.7Z" fill="#f30031" stroke="#f30031"></path><path d="M329 199.3L274 213.3L315 298.9Z" fill="#1e214c" stroke="#1e214c"></path><path d="M648 454.4L655 441.6L630 434.9Z" fill="#c4005c" stroke="#c4005c"></path><path d="M645 420.9L718 423.9L644 407.6Z" fill="#081b38" stroke="#081b38"></path><path d="M229 396.7L263 409.6L270 336Z" fill="#ff3400" stroke="#ff3400"></path><path d="M335 479.6L282 523.1L354 503.1Z" fill="#081b38" stroke="#081b38"></path><path d="M626 515.3L648 454.4L627 456.7Z" fill="#081b38" stroke="#081b38"></path><path d="M627 456.7L648 454.4L630 434.9Z" fill="#3c245d" stroke="#3c245d"></path><path d="M413 556.3L450 549.4L418 532.4Z" fill="#f30031" stroke="#f30031"></path><path d="M418 532.4L450 549.4L487 493.3Z" fill="#c4005c" stroke="#c4005c"></path><path d="M491 522.4L531 563.1L574 468.1Z" fill="#a40067" stroke="#a40067"></path><path d="M422 62.9L407 118.7L475 137.3Z" fill="#5e2167" stroke="#5e2167"></path><path d="M313 179.6L274 213.3L329 199.3Z" fill="#c4005c" stroke="#c4005c"></path><path d="M263 409.6L267 445.3L347 418.6Z" fill="#3c245d" stroke="#3c245d"></path><path d="M388 550.1L418 532.4L385 526.3Z" fill="#081b38" stroke="#081b38"></path><path d="M702 272.1L668 294L740 345.9Z" fill="#5e2167" stroke="#5e2167"></path><path d="M668 294L691 273L639 232.4Z" fill="#1e214c" stroke="#1e214c"></path><path d="M388 550.1L385 526.3L354 503.1Z" fill="#81166b" stroke="#81166b"></path><path d="M388 550.1L413 556.3L418 532.4Z" fill="#a40067" stroke="#a40067"></path><path d="M387 578.1L351 600L378 595.1Z" fill="#df004a" stroke="#df004a"></path><path d="M261 93.4L287 178.1L313 179.6Z" fill="#5e2167" stroke="#5e2167"></path><path d="M313 179.6L287 178.1L274 213.3Z" fill="#f30031" stroke="#f30031"></path><path d="M355 105.6L365 167.7L389 129.9Z" fill="#1e214c" stroke="#1e214c"></path><path d="M701 198.4L664 194.1L639 232.4Z" fill="#df004a" stroke="#df004a"></path><path d="M633 201.4L627 120.6L624 199.1Z" fill="#a40067" stroke="#a40067"></path><path d="M538 569.3L531 563.1L508 592.3Z" fill="#001122" stroke="#001122"></path><path d="M508 592.3L531 563.1L491 522.4Z" fill="#5e2167" stroke="#5e2167"></path><path d="M740 345.9L668 294L653 354.7Z" fill="#3c245d" stroke="#3c245d"></path><path d="M691 273L701 198.4L639 232.4Z" fill="#5e2167" stroke="#5e2167"></path><path d="M531 563.1L626 515.3L574 468.1Z" fill="#001122" stroke="#001122"></path><path d="M648 454.4L677 462.7L655 441.6Z" fill="#ff3400" stroke="#ff3400"></path><path d="M225 391.6L270 336L209 342.1Z" fill="#81166b" stroke="#81166b"></path><path d="M225 391.6L229 396.7L270 336Z" fill="#3c245d" stroke="#3c245d"></path><path d="M263 409.6L220 456.7L267 445.3Z" fill="#5e2167" stroke="#5e2167"></path><path d="M684 509.1L677 462.7L648 454.4Z" fill="#ff3400" stroke="#ff3400"></path><path d="M655 441.6L718 423.9L645 420.9Z" fill="#a40067" stroke="#a40067"></path><path d="M508 592.3L491 522.4L450 549.4Z" fill="#1e214c" stroke="#1e214c"></path><path d="M531 563.1L595 574.3L626 515.3Z" fill="#5e2167" stroke="#5e2167"></path><path d="M239 208.3L229 257L274 213.3Z" fill="#f30031" stroke="#f30031"></path><path d="M274 213.3L229 257L315 298.9Z" fill="#1e214c" stroke="#1e214c"></path><path d="M209 342.1L270 336L263 323.7Z" fill="#81166b" stroke="#81166b"></path><path d="M407 61.7L372 98.7L407 118.7Z" fill="#df004a" stroke="#df004a"></path><path d="M407 118.7L372 98.7L389 129.9Z" fill="#081b38" stroke="#081b38"></path><path d="M372 98.7L355 105.6L389 129.9Z" fill="#ff3400" stroke="#ff3400"></path><path d="M684 509.1L681 465.6L677 462.7Z" fill="#3c245d" stroke="#3c245d"></path><path d="M677 462.7L718 423.9L655 441.6Z" fill="#81166b" stroke="#81166b"></path><path d="M372 98.7L354 102.6L355 105.6Z" fill="#5e2167" stroke="#5e2167"></path><path d="M261 93.4L267 168.6L287 178.1Z" fill="#1e214c" stroke="#1e214c"></path><path d="M220 456.7L259 481.3L267 445.3Z" fill="#c4005c" stroke="#c4005c"></path><path d="M267 445.3L259 481.3L330 458.7Z" fill="#001122" stroke="#001122"></path><path d="M220 456.7L263 409.6L229 396.7Z" fill="#f30031" stroke="#f30031"></path><path d="M261 93.4L313 179.6L355 105.6Z" fill="#a40067" stroke="#a40067"></path><path d="M287 178.1L267 168.6L274 213.3Z" fill="#3c245d" stroke="#3c245d"></path><path d="M199 325.9L209 342.1L263 323.7Z" fill="#3c245d" stroke="#3c245d"></path><path d="M238 185.4L239 208.3L274 213.3Z" fill="#001122" stroke="#001122"></path><path d="M229 257L199 325.9L263 323.7Z" fill="#5e2167" stroke="#5e2167"></path><path d="M388 550.1L387 578.1L413 556.3Z" fill="#df004a" stroke="#df004a"></path><path d="M440 600L508 592.3L450 549.4Z" fill="#3c245d" stroke="#3c245d"></path><path d="M351 600L388 550.1L339 600Z" fill="#c4005c" stroke="#c4005c"></path><path d="M627 120.6L591 101.7L586 152.3Z" fill="#c4005c" stroke="#c4005c"></path><path d="M586 152.3L591 101.7L517 122.7Z" fill="#1e214c" stroke="#1e214c"></path><path d="M517 122.7L422 62.9L475 137.3Z" fill="#c4005c" stroke="#c4005c"></path><path d="M664 194.1L627 120.6L633 201.4Z" fill="#001122" stroke="#001122"></path><path d="M440 600L450 549.4L413 556.3Z" fill="#ff3400" stroke="#ff3400"></path><path d="M538 569.3L595 574.3L531 563.1Z" fill="#81166b" stroke="#81166b"></path><path d="M259 481.3L282 523.1L335 479.6Z" fill="#3c245d" stroke="#3c245d"></path><path d="M681 465.6L718 423.9L677 462.7Z" fill="#a40067" stroke="#a40067"></path><path d="M190 257.4L199 325.9L229 257Z" fill="#001122" stroke="#001122"></path><path d="M209 342.1L172 338.6L225 391.6Z" fill="#ff3400" stroke="#ff3400"></path><path d="M172 456.6L220 456.7L229 396.7Z" fill="#ff3400" stroke="#ff3400"></path><path d="M702 272.1L701 198.4L691 273Z" fill="#1e214c" stroke="#1e214c"></path><path d="M664 194.1L719 163.4L627 120.6Z" fill="#001122" stroke="#001122"></path><path d="M746 267.9L701 198.4L702 272.1Z" fill="#3c245d" stroke="#3c245d"></path><path d="M403 600L440 600L413 556.3Z" fill="#f30031" stroke="#f30031"></path><path d="M267 168.6L238 185.4L274 213.3Z" fill="#001122" stroke="#001122"></path><path d="M239 208.3L190 257.4L229 257Z" fill="#f30031" stroke="#f30031"></path><path d="M222 113.4L238 185.4L267 168.6Z" fill="#ff3400" stroke="#ff3400"></path><path d="M372 98.7L317 41.7L354 102.6Z" fill="#1e214c" stroke="#1e214c"></path><path d="M546 36.6L422 62.9L517 122.7Z" fill="#3c245d" stroke="#3c245d"></path><path d="M718 423.9L740 345.9L653 354.7Z" fill="#081b38" stroke="#081b38"></path><path d="M563 600L595 574.3L538 569.3Z" fill="#ff3400" stroke="#ff3400"></path><path d="M626 515.3L684 509.1L648 454.4Z" fill="#f30031" stroke="#f30031"></path><path d="M681 465.6L722 491.4L718 423.9Z" fill="#df004a" stroke="#df004a"></path><path d="M595 574.3L658 529.4L626 515.3Z" fill="#a40067" stroke="#a40067"></path><path d="M422 62.9L407 61.7L407 118.7Z" fill="#1e214c" stroke="#1e214c"></path><path d="M354 102.6L261 93.4L355 105.6Z" fill="#df004a" stroke="#df004a"></path><path d="M378 595.1L403 600L387 578.1Z" fill="#081b38" stroke="#081b38"></path><path d="M387 578.1L403 600L413 556.3Z" fill="#001122" stroke="#001122"></path><path d="M172 456.6L229 396.7L225 391.6Z" fill="#81166b" stroke="#81166b"></path><path d="M259 481.3L219 510.1L282 523.1Z" fill="#df004a" stroke="#df004a"></path><path d="M351 600L387 578.1L388 550.1Z" fill="#c4005c" stroke="#c4005c"></path><path d="M440 600L543 600L508 592.3Z" fill="#f30031" stroke="#f30031"></path><path d="M508 592.3L543 600L538 569.3Z" fill="#ff3400" stroke="#ff3400"></path><path d="M658 529.4L684 509.1L626 515.3Z" fill="#df004a" stroke="#df004a"></path><path d="M543 600L563 600L538 569.3Z" fill="#ff3400" stroke="#ff3400"></path><path d="M595 574.3L628 606.3L658 529.4Z" fill="#081b38" stroke="#081b38"></path><path d="M740 345.9L746 267.9L702 272.1Z" fill="#3c245d" stroke="#3c245d"></path><path d="M145 245.3L190 257.4L148 196.1Z" fill="#001122" stroke="#001122"></path><path d="M563 600L582 600L595 574.3Z" fill="#5e2167" stroke="#5e2167"></path><path d="M777 493.3L722 491.4L725 571.1Z" fill="#001122" stroke="#001122"></path><path d="M339 600L388 550.1L354 503.1Z" fill="#f30031" stroke="#f30031"></path><path d="M378 595.1L351 600L403 600Z" fill="#c4005c" stroke="#c4005c"></path><path d="M339 600L354 503.1L311 593.3Z" fill="#df004a" stroke="#df004a"></path><path d="M455 0L407 42.9L422 62.9Z" fill="#81166b" stroke="#81166b"></path><path d="M422 62.9L407 42.9L407 61.7Z" fill="#5e2167" stroke="#5e2167"></path><path d="M407 61.7L392 22.9L372 98.7Z" fill="#ff3400" stroke="#ff3400"></path><path d="M168 332.7L172 338.6L199 325.9Z" fill="#f30031" stroke="#f30031"></path><path d="M199 325.9L172 338.6L209 342.1Z" fill="#f30031" stroke="#f30031"></path><path d="M311 593.3L354 503.1L282 523.1Z" fill="#081b38" stroke="#081b38"></path><path d="M168 284.3L168 332.7L199 325.9Z" fill="#ff3400" stroke="#ff3400"></path><path d="M172 456.6L219 510.1L220 456.7Z" fill="#081b38" stroke="#081b38"></path><path d="M684 509.1L722 491.4L681 465.6Z" fill="#c4005c" stroke="#c4005c"></path><path d="M718 423.9L763 409.4L740 345.9Z" fill="#df004a" stroke="#df004a"></path><path d="M725 571.1L684 509.1L658 529.4Z" fill="#df004a" stroke="#df004a"></path><path d="M755 211.6L719 163.4L701 198.4Z" fill="#3c245d" stroke="#3c245d"></path><path d="M701 198.4L719 163.4L664 194.1Z" fill="#a40067" stroke="#a40067"></path><path d="M610 47.9L546 36.6L591 101.7Z" fill="#81166b" stroke="#81166b"></path><path d="M142 281.9L168 284.3L145 245.3Z" fill="#081b38" stroke="#081b38"></path><path d="M190 257.4L168 284.3L199 325.9Z" fill="#001122" stroke="#001122"></path><path d="M610 47.9L591 101.7L627 120.6Z" fill="#df004a" stroke="#df004a"></path><path d="M591 101.7L546 36.6L517 122.7Z" fill="#1e214c" stroke="#1e214c"></path><path d="M262 564.1L311 593.3L282 523.1Z" fill="#1e214c" stroke="#1e214c"></path><path d="M774 246L761 248.3L746 267.9Z" fill="#f30031" stroke="#f30031"></path><path d="M746 267.9L755 211.6L701 198.4Z" fill="#f30031" stroke="#f30031"></path><path d="M774 246L746 267.9L817 365Z" fill="#1e214c" stroke="#1e214c"></path><path d="M582 600L612 600L595 574.3Z" fill="#a40067" stroke="#a40067"></path><path d="M172 456.6L225 391.6L172 338.6Z" fill="#f30031" stroke="#f30031"></path><path d="M220 456.7L219 510.1L259 481.3Z" fill="#ff3400" stroke="#ff3400"></path><path d="M763 411.6L763 409.4L718 423.9Z" fill="#df004a" stroke="#df004a"></path><path d="M792 466.7L763 411.6L718 423.9Z" fill="#3c245d" stroke="#3c245d"></path><path d="M224 535.4L262 564.1L282 523.1Z" fill="#a40067" stroke="#a40067"></path><path d="M761 248.3L755 211.6L746 267.9Z" fill="#ff3400" stroke="#ff3400"></path><path d="M317 41.7L297 68.9L354 102.6Z" fill="#a40067" stroke="#a40067"></path><path d="M148 196.1L190 257.4L239 208.3Z" fill="#5e2167" stroke="#5e2167"></path><path d="M297 68.9L261 93.4L354 102.6Z" fill="#1e214c" stroke="#1e214c"></path><path d="M404 0L392 22.9L407 42.9Z" fill="#081b38" stroke="#081b38"></path><path d="M407 42.9L392 22.9L407 61.7Z" fill="#001122" stroke="#001122"></path><path d="M691 90.9L610 47.9L627 120.6Z" fill="#1e214c" stroke="#1e214c"></path><path d="M219 510.1L224 535.4L282 523.1Z" fill="#081b38" stroke="#081b38"></path><path d="M198 520.4L224 535.4L219 510.1Z" fill="#ff3400" stroke="#ff3400"></path><path d="M817 365L746 267.9L740 345.9Z" fill="#5e2167" stroke="#5e2167"></path><path d="M761 248.3L774 246L755 211.6Z" fill="#001122" stroke="#001122"></path><path d="M788 396.4L740 345.9L763 409.4Z" fill="#a40067" stroke="#a40067"></path><path d="M632 609.1L628 606.3L612 600Z" fill="#81166b" stroke="#81166b"></path><path d="M612 600L628 606.3L595 574.3Z" fill="#df004a" stroke="#df004a"></path><path d="M632 609.1L612 600L582 600Z" fill="#a40067" stroke="#a40067"></path><path d="M632 609.1L582 600L670 641.1Z" fill="#81166b" stroke="#81166b"></path><path d="M582 600L563 600L670 641.1Z" fill="#081b38" stroke="#081b38"></path><path d="M563 600L543 600L670 641.1Z" fill="#f30031" stroke="#f30031"></path><path d="M543 600L440 600L670 641.1Z" fill="#081b38" stroke="#081b38"></path><path d="M440 600L403 600L670 641.1Z" fill="#3c245d" stroke="#3c245d"></path><path d="M108 425.3L172 456.6L172 338.6Z" fill="#001122" stroke="#001122"></path><path d="M670 641.1L403 600L351 600Z" fill="#081b38" stroke="#081b38"></path><path d="M628 606.3L632 609.1L658 529.4Z" fill="#a40067" stroke="#a40067"></path><path d="M392 22.9L317 41.7L372 98.7Z" fill="#a40067" stroke="#a40067"></path><path d="M297 68.9L230 2.7L261 93.4Z" fill="#3c245d" stroke="#3c245d"></path><path d="M230 2.7L222 113.4L261 93.4Z" fill="#df004a" stroke="#df004a"></path><path d="M261 93.4L222 113.4L267 168.6Z" fill="#c4005c" stroke="#c4005c"></path><path d="M791 428.4L788 396.4L763 411.6Z" fill="#df004a" stroke="#df004a"></path><path d="M763 411.6L788 396.4L763 409.4Z" fill="#3c245d" stroke="#3c245d"></path><path d="M719 163.4L691 90.9L627 120.6Z" fill="#001122" stroke="#001122"></path><path d="M708 99.9L691 90.9L719 163.4Z" fill="#3c245d" stroke="#3c245d"></path><path d="M756 170.7L719 163.4L755 211.6Z" fill="#df004a" stroke="#df004a"></path><path d="M145 245.3L168 284.3L190 257.4Z" fill="#a40067" stroke="#a40067"></path><path d="M168 284.3L142 281.9L168 332.7Z" fill="#ff3400" stroke="#ff3400"></path><path d="M168 332.7L116 322.1L172 338.6Z" fill="#f30031" stroke="#f30031"></path><path d="M610 47.9L599 29.7L546 36.6Z" fill="#5e2167" stroke="#5e2167"></path><path d="M546 36.6L455 0L422 62.9Z" fill="#001122" stroke="#001122"></path><path d="M599 0L599 29.7L609 0Z" fill="#001122" stroke="#001122"></path><path d="M172 456.6L198 520.4L219 510.1Z" fill="#3c245d" stroke="#3c245d"></path><path d="M228 600L249 600L262 564.1Z" fill="#a40067" stroke="#a40067"></path><path d="M551 3.7L541 9.9L546 36.6Z" fill="#5e2167" stroke="#5e2167"></path><path d="M772 188.6L756 170.7L755 211.6Z" fill="#1e214c" stroke="#1e214c"></path><path d="M541 9.9L455 0L546 36.6Z" fill="#81166b" stroke="#81166b"></path><path d="M392 22.9L317 0L317 41.7Z" fill="#f30031" stroke="#f30031"></path><path d="M148 196.1L239 208.3L238 185.4Z" fill="#f30031" stroke="#f30031"></path><path d="M750 130.9L708 99.9L719 163.4Z" fill="#81166b" stroke="#81166b"></path><path d="M609 0L599 29.7L610 47.9Z" fill="#81166b" stroke="#81166b"></path><path d="M787 185.3L772 188.6L755 211.6Z" fill="#081b38" stroke="#081b38"></path><path d="M756 170.7L750 130.9L719 163.4Z" fill="#1e214c" stroke="#1e214c"></path><path d="M787 185.3L755 211.6L774 246Z" fill="#81166b" stroke="#81166b"></path><path d="M455 0L404 0L407 42.9Z" fill="#081b38" stroke="#081b38"></path><path d="M599 29.7L551 3.7L546 36.6Z" fill="#3c245d" stroke="#3c245d"></path><path d="M541 9.9L551 3.7L455 0Z" fill="#f30031" stroke="#f30031"></path><path d="M404 0L399 0L392 22.9Z" fill="#ff3400" stroke="#ff3400"></path><path d="M792 466.7L718 423.9L722 491.4Z" fill="#ff3400" stroke="#ff3400"></path><path d="M792 466.7L791 428.4L763 411.6Z" fill="#001122" stroke="#001122"></path><path d="M788 396.4L817 365L740 345.9Z" fill="#3c245d" stroke="#3c245d"></path><path d="M148 196.1L138 245.3L145 245.3Z" fill="#3c245d" stroke="#3c245d"></path><path d="M145 245.3L138 245.3L142 281.9Z" fill="#ff3400" stroke="#ff3400"></path><path d="M791 428.4L801 410.9L788 396.4Z" fill="#081b38" stroke="#081b38"></path><path d="M146 180.1L148 196.1L238 185.4Z" fill="#3c245d" stroke="#3c245d"></path><path d="M228 600L262 564.1L224 535.4Z" fill="#001122" stroke="#001122"></path><path d="M262 564.1L249 600L311 593.3Z" fill="#5e2167" stroke="#5e2167"></path><path d="M311 593.3L249 600L339 600Z" fill="#df004a" stroke="#df004a"></path><path d="M339 600L670 641.1L351 600Z" fill="#df004a" stroke="#df004a"></path><path d="M801 164.6L750 130.9L756 170.7Z" fill="#081b38" stroke="#081b38"></path><path d="M455 0L415 -12.1L404 0Z" fill="#a40067" stroke="#a40067"></path><path d="M404 0L415 -12.1L399 0Z" fill="#a40067" stroke="#a40067"></path><path d="M399 0L317 0L392 22.9Z" fill="#f30031" stroke="#f30031"></path><path d="M551 3.7L415 -12.1L455 0Z" fill="#81166b" stroke="#81166b"></path><path d="M791 428.4L806 406.7L801 410.9Z" fill="#001122" stroke="#001122"></path><path d="M801 410.9L806 406.7L788 396.4Z" fill="#df004a" stroke="#df004a"></path><path d="M725 571.1L722 491.4L684 509.1Z" fill="#5e2167" stroke="#5e2167"></path><path d="M791 428.4L792 466.7L806 406.7Z" fill="#ff3400" stroke="#ff3400"></path><path d="M102 286.3L142 281.9L138 245.3Z" fill="#001122" stroke="#001122"></path><path d="M102 286.3L116 322.1L142 281.9Z" fill="#f30031" stroke="#f30031"></path><path d="M142 281.9L116 322.1L168 332.7Z" fill="#001122" stroke="#001122"></path><path d="M172 456.6L149 486.4L198 520.4Z" fill="#df004a" stroke="#df004a"></path><path d="M801 164.6L787 185.3L876 205.3Z" fill="#3c245d" stroke="#3c245d"></path><path d="M772 188.6L787 185.3L756 170.7Z" fill="#df004a" stroke="#df004a"></path><path d="M806 406.7L817 365L788 396.4Z" fill="#81166b" stroke="#81166b"></path><path d="M777 493.3L792 466.7L722 491.4Z" fill="#3c245d" stroke="#3c245d"></path><path d="M900 358L900 343.1L817 365Z" fill="#81166b" stroke="#81166b"></path><path d="M632 609.1L725 571.1L658 529.4Z" fill="#081b38" stroke="#081b38"></path><path d="M108 425.3L149 486.4L172 456.6Z" fill="#df004a" stroke="#df004a"></path><path d="M198 520.4L228 600L224 535.4Z" fill="#1e214c" stroke="#1e214c"></path><path d="M222 113.4L146 180.1L238 185.4Z" fill="#1e214c" stroke="#1e214c"></path><path d="M103 240.1L102 286.3L138 245.3Z" fill="#1e214c" stroke="#1e214c"></path><path d="M149 486.4L167 521.1L198 520.4Z" fill="#a40067" stroke="#a40067"></path><path d="M599 29.7L599 0L551 3.7Z" fill="#df004a" stroke="#df004a"></path><path d="M551 3.7L599 0L415 -12.1Z" fill="#5e2167" stroke="#5e2167"></path><path d="M609 0L610 47.9L655 0Z" fill="#5e2167" stroke="#5e2167"></path><path d="M610 47.9L691 90.9L655 0Z" fill="#5e2167" stroke="#5e2167"></path><path d="M752 82.6L691 90.9L708 99.9Z" fill="#5e2167" stroke="#5e2167"></path><path d="M599 0L816 -38.1L415 -12.1Z" fill="#3c245d" stroke="#3c245d"></path><path d="M167 521.1L228 600L198 520.4Z" fill="#81166b" stroke="#81166b"></path><path d="M249 600L670 641.1L339 600Z" fill="#81166b" stroke="#81166b"></path><path d="M415 -12.1L317 0L399 0Z" fill="#f30031" stroke="#f30031"></path><path d="M317 41.7L292 0L297 68.9Z" fill="#df004a" stroke="#df004a"></path><path d="M140 129.7L130 177.4L146 180.1Z" fill="#081b38" stroke="#081b38"></path><path d="M113 221L138 245.3L148 196.1Z" fill="#3c245d" stroke="#3c245d"></path><path d="M116 322.1L108 425.3L172 338.6Z" fill="#3c245d" stroke="#3c245d"></path><path d="M415 -12.1L301 0L317 0Z" fill="#1e214c" stroke="#1e214c"></path><path d="M317 0L301 0L317 41.7Z" fill="#a40067" stroke="#a40067"></path><path d="M140 129.7L146 180.1L222 113.4Z" fill="#1e214c" stroke="#1e214c"></path><path d="M146 180.1L130 177.4L148 196.1Z" fill="#81166b" stroke="#81166b"></path><path d="M130 177.4L113 221L148 196.1Z" fill="#81166b" stroke="#81166b"></path><path d="M228 600L670 641.1L249 600Z" fill="#1e214c" stroke="#1e214c"></path><path d="M632 609.1L670 641.1L725 571.1Z" fill="#c4005c" stroke="#c4005c"></path><path d="M77 352.6L108 425.3L116 322.1Z" fill="#1e214c" stroke="#1e214c"></path><path d="M149 486.4L79 528.4L167 521.1Z" fill="#a40067" stroke="#a40067"></path><path d="M746 600L743 581.1L725 571.1Z" fill="#f30031" stroke="#f30031"></path><path d="M725 571.1L743 581.1L777 493.3Z" fill="#081b38" stroke="#081b38"></path><path d="M777 493.3L800 508.3L792 466.7Z" fill="#001122" stroke="#001122"></path><path d="M787 185.3L801 164.6L756 170.7Z" fill="#5e2167" stroke="#5e2167"></path><path d="M750 130.9L752 82.6L708 99.9Z" fill="#f30031" stroke="#f30031"></path><path d="M858 254.1L787 185.3L774 246Z" fill="#001122" stroke="#001122"></path><path d="M415 -12.1L292 0L301 0Z" fill="#ff3400" stroke="#ff3400"></path><path d="M301 0L292 0L317 41.7Z" fill="#1e214c" stroke="#1e214c"></path><path d="M113 221L103 240.1L138 245.3Z" fill="#3c245d" stroke="#3c245d"></path><path d="M60 225.4L103 240.1L113 221Z" fill="#ff3400" stroke="#ff3400"></path><path d="M743 581.1L800 508.3L777 493.3Z" fill="#df004a" stroke="#df004a"></path><path d="M900 444.3L900 430.9L806 406.7Z" fill="#ff3400" stroke="#ff3400"></path><path d="M784 85.9L752 82.6L750 130.9Z" fill="#a40067" stroke="#a40067"></path><path d="M716 3.7L655 0L691 90.9Z" fill="#001122" stroke="#001122"></path><path d="M609 0L816 -38.1L599 0Z" fill="#081b38" stroke="#081b38"></path><path d="M746 600L750 585.1L743 581.1Z" fill="#081b38" stroke="#081b38"></path><path d="M743 581.1L805 566.3L800 508.3Z" fill="#3c245d" stroke="#3c245d"></path><path d="M53 298.3L86 307L102 286.3Z" fill="#ff3400" stroke="#ff3400"></path><path d="M102 286.3L86 307L116 322.1Z" fill="#001122" stroke="#001122"></path><path d="M139 98.6L140 129.7L222 113.4Z" fill="#df004a" stroke="#df004a"></path><path d="M130 177.4L60 225.4L113 221Z" fill="#c4005c" stroke="#c4005c"></path><path d="M746 606.3L746 600L725 571.1Z" fill="#ff3400" stroke="#ff3400"></path><path d="M750 585.1L805 566.3L743 581.1Z" fill="#5e2167" stroke="#5e2167"></path><path d="M86 307L79 331.9L116 322.1Z" fill="#f30031" stroke="#f30031"></path><path d="M59 366.9L79 331.9L53 298.3Z" fill="#a40067" stroke="#a40067"></path><path d="M79 331.9L77 352.6L116 322.1Z" fill="#1e214c" stroke="#1e214c"></path><path d="M670 641.1L746 606.3L725 571.1Z" fill="#ff3400" stroke="#ff3400"></path><path d="M746 600L753 600L750 585.1Z" fill="#c4005c" stroke="#c4005c"></path><path d="M746 606.3L753 600L746 600Z" fill="#001122" stroke="#001122"></path><path d="M874 296.3L774 246L817 365Z" fill="#081b38" stroke="#081b38"></path><path d="M874 296.3L858 254.1L774 246Z" fill="#5e2167" stroke="#5e2167"></path><path d="M801 164.6L784 85.9L750 130.9Z" fill="#3c245d" stroke="#3c245d"></path><path d="M813 78.9L784 85.9L801 164.6Z" fill="#c4005c" stroke="#c4005c"></path><path d="M752 82.6L716 3.7L691 90.9Z" fill="#c4005c" stroke="#c4005c"></path><path d="M817 600L764 600L746 606.3Z" fill="#1e214c" stroke="#1e214c"></path><path d="M746 606.3L764 600L753 600Z" fill="#1e214c" stroke="#1e214c"></path><path d="M753 600L764 600L750 585.1Z" fill="#81166b" stroke="#81166b"></path><path d="M142 45.9L139 98.6L222 113.4Z" fill="#f30031" stroke="#f30031"></path><path d="M140 129.7L124 109.7L130 177.4Z" fill="#c4005c" stroke="#c4005c"></path><path d="M53 298.3L79 331.9L86 307Z" fill="#ff3400" stroke="#ff3400"></path><path d="M225 0L230 2.7L292 0Z" fill="#3c245d" stroke="#3c245d"></path><path d="M292 0L230 2.7L297 68.9Z" fill="#5e2167" stroke="#5e2167"></path><path d="M805 566.3L834 506.6L800 508.3Z" fill="#081b38" stroke="#081b38"></path><path d="M800 508.3L834 506.6L792 466.7Z" fill="#5e2167" stroke="#5e2167"></path><path d="M59 366.9L77 352.6L79 331.9Z" fill="#df004a" stroke="#df004a"></path><path d="M59 366.9L64 390L77 352.6Z" fill="#3c245d" stroke="#3c245d"></path><path d="M77 352.6L64 390L108 425.3Z" fill="#df004a" stroke="#df004a"></path><path d="M108 425.3L80 478.3L149 486.4Z" fill="#c4005c" stroke="#c4005c"></path><path d="M167 521.1L116 600L228 600Z" fill="#a40067" stroke="#a40067"></path><path d="M119 98.6L124 109.7L139 98.6Z" fill="#f30031" stroke="#f30031"></path><path d="M139 98.6L124 109.7L140 129.7Z" fill="#5e2167" stroke="#5e2167"></path><path d="M900 343.1L874 296.3L817 365Z" fill="#c4005c" stroke="#c4005c"></path><path d="M53 298.3L102 286.3L60 225.4Z" fill="#81166b" stroke="#81166b"></path><path d="M415 -12.1L225 0L292 0Z" fill="#ff3400" stroke="#ff3400"></path><path d="M230 2.7L194 -0.1L222 113.4Z" fill="#a40067" stroke="#a40067"></path><path d="M415 -12.1L224 0L225 0Z" fill="#081b38" stroke="#081b38"></path><path d="M225 0L224 0L230 2.7Z" fill="#5e2167" stroke="#5e2167"></path><path d="M740 0L716 3.7L752 82.6Z" fill="#ff3400" stroke="#ff3400"></path><path d="M764 600L805 566.3L750 585.1Z" fill="#3c245d" stroke="#3c245d"></path><path d="M59 366.9L58 388.6L64 390Z" fill="#3c245d" stroke="#3c245d"></path><path d="M42 460.3L80 478.3L108 425.3Z" fill="#081b38" stroke="#081b38"></path><path d="M41 415.4L108 425.3L64 390Z" fill="#81166b" stroke="#81166b"></path><path d="M60 225.4L102 286.3L103 240.1Z" fill="#1e214c" stroke="#1e214c"></path><path d="M-17 398.7L41 415.4L58 388.6Z" fill="#081b38" stroke="#081b38"></path><path d="M142 45.9L119 98.6L139 98.6Z" fill="#081b38" stroke="#081b38"></path><path d="M79 101.6L60 225.4L130 177.4Z" fill="#001122" stroke="#001122"></path><path d="M900 252.4L872 223.1L858 254.1Z" fill="#81166b" stroke="#81166b"></path><path d="M858 254.1L872 223.1L787 185.3Z" fill="#ff3400" stroke="#ff3400"></path><path d="M79 101.6L130 177.4L124 109.7Z" fill="#f30031" stroke="#f30031"></path><path d="M900 295.7L891 285.9L874 296.3Z" fill="#081b38" stroke="#081b38"></path><path d="M874 296.3L891 285.9L858 254.1Z" fill="#f30031" stroke="#f30031"></path><path d="M872 223.1L876 205.3L787 185.3Z" fill="#c4005c" stroke="#c4005c"></path><path d="M900 252.4L876 205.3L872 223.1Z" fill="#df004a" stroke="#df004a"></path><path d="M852 132.7L813 78.9L801 164.6Z" fill="#1e214c" stroke="#1e214c"></path><path d="M765 0L740 0L752 82.6Z" fill="#ff3400" stroke="#ff3400"></path><path d="M765 0L752 82.6L784 85.9Z" fill="#f30031" stroke="#f30031"></path><path d="M716 3.7L816 -38.1L655 0Z" fill="#81166b" stroke="#81166b"></path><path d="M655 0L816 -38.1L609 0Z" fill="#df004a" stroke="#df004a"></path><path d="M415 -12.1L194 -0.1L224 0Z" fill="#f30031" stroke="#f30031"></path><path d="M224 0L194 -0.1L230 2.7Z" fill="#f30031" stroke="#f30031"></path><path d="M876 205.3L853 136.4L801 164.6Z" fill="#ff3400" stroke="#ff3400"></path><path d="M194 -0.1L142 45.9L222 113.4Z" fill="#ff3400" stroke="#ff3400"></path><path d="M119 98.6L100 95.9L124 109.7Z" fill="#f30031" stroke="#f30031"></path><path d="M902 123.7L852 132.7L853 136.4Z" fill="#1e214c" stroke="#1e214c"></path><path d="M853 136.4L852 132.7L801 164.6Z" fill="#c4005c" stroke="#c4005c"></path><path d="M900 358L817 365L900 396.6Z" fill="#ff3400" stroke="#ff3400"></path><path d="M900 396.6L817 365L806 406.7Z" fill="#c4005c" stroke="#c4005c"></path><path d="M-2 339.7L58 388.6L59 366.9Z" fill="#1e214c" stroke="#1e214c"></path><path d="M58 388.6L41 415.4L64 390Z" fill="#ff3400" stroke="#ff3400"></path><path d="M-2 339.7L59 366.9L53 298.3Z" fill="#5e2167" stroke="#5e2167"></path><path d="M900 343.1L900 295.7L874 296.3Z" fill="#5e2167" stroke="#5e2167"></path><path d="M891 285.9L900 252.4L858 254.1Z" fill="#3c245d" stroke="#3c245d"></path><path d="M42 460.3L79 528.4L80 478.3Z" fill="#f30031" stroke="#f30031"></path><path d="M80 478.3L79 528.4L149 486.4Z" fill="#001122" stroke="#001122"></path><path d="M105 49.9L100 95.9L119 98.6Z" fill="#081b38" stroke="#081b38"></path><path d="M806 406.7L792 466.7L900 444.3Z" fill="#81166b" stroke="#81166b"></path><path d="M900 430.9L900 396.6L806 406.7Z" fill="#81166b" stroke="#81166b"></path><path d="M194 -0.1L179 0L142 45.9Z" fill="#df004a" stroke="#df004a"></path><path d="M61 80.4L79 101.6L100 95.9Z" fill="#c4005c" stroke="#c4005c"></path><path d="M415 -12.1L179 0L194 -0.1Z" fill="#f30031" stroke="#f30031"></path><path d="M900 295.7L900 252.4L891 285.9Z" fill="#f30031" stroke="#f30031"></path><path d="M876 205.3L900 187.3L853 136.4Z" fill="#c4005c" stroke="#c4005c"></path><path d="M764 600L817 600L805 566.3Z" fill="#3c245d" stroke="#3c245d"></path><path d="M900 561.4L900 519.1L834 506.6Z" fill="#3c245d" stroke="#3c245d"></path><path d="M670 641.1L817 600L746 606.3Z" fill="#81166b" stroke="#81166b"></path><path d="M79 528.4L116 600L167 521.1Z" fill="#df004a" stroke="#df004a"></path><path d="M228 600L116 600L670 641.1Z" fill="#df004a" stroke="#df004a"></path><path d="M41 415.4L42 460.3L108 425.3Z" fill="#a40067" stroke="#a40067"></path><path d="M79 528.4L108 600L116 600Z" fill="#ff3400" stroke="#ff3400"></path><path d="M900 444.3L792 466.7L834 506.6Z" fill="#5e2167" stroke="#5e2167"></path><path d="M790 0L765 0L784 85.9Z" fill="#81166b" stroke="#81166b"></path><path d="M740 0L816 -38.1L716 3.7Z" fill="#81166b" stroke="#81166b"></path><path d="M827 62.6L784 85.9L813 78.9Z" fill="#001122" stroke="#001122"></path><path d="M917 442.7L900 444.3L900 519.1Z" fill="#001122" stroke="#001122"></path><path d="M36 550.1L108 600L79 528.4Z" fill="#df004a" stroke="#df004a"></path><path d="M116 600L108 600L670 641.1Z" fill="#001122" stroke="#001122"></path><path d="M900 104.6L827 62.6L852 132.7Z" fill="#81166b" stroke="#81166b"></path><path d="M852 132.7L827 62.6L813 78.9Z" fill="#81166b" stroke="#81166b"></path><path d="M105 49.9L119 98.6L142 45.9Z" fill="#a40067" stroke="#a40067"></path><path d="M100 95.9L79 101.6L124 109.7Z" fill="#081b38" stroke="#081b38"></path><path d="M900 252.4L900 187.3L876 205.3Z" fill="#df004a" stroke="#df004a"></path><path d="M80 19.7L105 49.9L142 45.9Z" fill="#ff3400" stroke="#ff3400"></path><path d="M827 62.6L790 0L784 85.9Z" fill="#a40067" stroke="#a40067"></path><path d="M765 0L816 -38.1L740 0Z" fill="#001122" stroke="#001122"></path><path d="M900 519.1L900 444.3L834 506.6Z" fill="#5e2167" stroke="#5e2167"></path><path d="M900 444.3L917 442.7L900 430.9Z" fill="#f30031" stroke="#f30031"></path><path d="M900 430.9L924 423.6L900 396.6Z" fill="#a40067" stroke="#a40067"></path><path d="M900 396.6L924 423.6L900 358Z" fill="#81166b" stroke="#81166b"></path><path d="M900 358L938 324L900 343.1Z" fill="#081b38" stroke="#081b38"></path><path d="M900 343.1L938 324L900 295.7Z" fill="#df004a" stroke="#df004a"></path><path d="M900 295.7L938 324L900 252.4Z" fill="#f30031" stroke="#f30031"></path><path d="M900 252.4L938 324L900 187.3Z" fill="#3c245d" stroke="#3c245d"></path><path d="M917 442.7L924 423.6L900 430.9Z" fill="#81166b" stroke="#81166b"></path><path d="M0 210.1L4 271.9L60 225.4Z" fill="#a40067" stroke="#a40067"></path><path d="M60 225.4L4 271.9L53 298.3Z" fill="#001122" stroke="#001122"></path><path d="M41 415.4L0 432.9L42 460.3Z" fill="#001122" stroke="#001122"></path><path d="M0 310L0 310.7L53 298.3Z" fill="#1e214c" stroke="#1e214c"></path><path d="M4 271.9L0 310L53 298.3Z" fill="#5e2167" stroke="#5e2167"></path><path d="M-36 308L-2 339.7L0 310.7Z" fill="#1e214c" stroke="#1e214c"></path><path d="M0 310.7L-2 339.7L53 298.3Z" fill="#001122" stroke="#001122"></path><path d="M924 423.6L938 324L900 358Z" fill="#ff3400" stroke="#ff3400"></path><path d="M900 561.4L834 506.6L805 566.3Z" fill="#f30031" stroke="#f30031"></path><path d="M917 442.7L922 615.1L924 423.6Z" fill="#ff3400" stroke="#ff3400"></path><path d="M105 49.9L61 80.4L100 95.9Z" fill="#001122" stroke="#001122"></path><path d="M0 205.3L0 210.1L60 225.4Z" fill="#001122" stroke="#001122"></path><path d="M-17 398.7L0 432.9L41 415.4Z" fill="#f30031" stroke="#f30031"></path><path d="M0 497.1L36 550.1L79 528.4Z" fill="#081b38" stroke="#081b38"></path><path d="M900 187.3L902 123.7L853 136.4Z" fill="#f30031" stroke="#f30031"></path><path d="M827 62.6L847 0L790 0Z" fill="#f30031" stroke="#f30031"></path><path d="M917 140.4L902 123.7L900 187.3Z" fill="#001122" stroke="#001122"></path><path d="M4 271.9L-36 308L0 310Z" fill="#81166b" stroke="#81166b"></path><path d="M-36 308L-17 398.7L-2 339.7Z" fill="#1e214c" stroke="#1e214c"></path><path d="M0 205.3L60 225.4L0 148.4Z" fill="#001122" stroke="#001122"></path><path d="M-17 398.7L0 452.4L0 432.9Z" fill="#3c245d" stroke="#3c245d"></path><path d="M0 432.9L0 452.4L42 460.3Z" fill="#a40067" stroke="#a40067"></path><path d="M0 148.4L60 225.4L79 101.6Z" fill="#df004a" stroke="#df004a"></path><path d="M-36 308L0 310.7L0 310Z" fill="#1e214c" stroke="#1e214c"></path><path d="M0 497.1L79 528.4L42 460.3Z" fill="#3c245d" stroke="#3c245d"></path><path d="M0 452.4L0 470.3L42 460.3Z" fill="#a40067" stroke="#a40067"></path><path d="M-25 519.4L0 470.3L0 452.4Z" fill="#f30031" stroke="#f30031"></path><path d="M-25 519.4L0 473.6L0 470.3Z" fill="#1e214c" stroke="#1e214c"></path><path d="M0 470.3L0 473.6L42 460.3Z" fill="#f30031" stroke="#f30031"></path><path d="M917 140.4L900 104.6L902 123.7Z" fill="#a40067" stroke="#a40067"></path><path d="M902 123.7L900 104.6L852 132.7Z" fill="#a40067" stroke="#a40067"></path><path d="M938 324L917 140.4L900 187.3Z" fill="#001122" stroke="#001122"></path><path d="M-36 308L4 271.9L0 210.1Z" fill="#001122" stroke="#001122"></path><path d="M-2 339.7L-17 398.7L58 388.6Z" fill="#f30031" stroke="#f30031"></path><path d="M879 600L900 561.4L805 566.3Z" fill="#c4005c" stroke="#c4005c"></path><path d="M900 519.1L922 615.1L917 442.7Z" fill="#081b38" stroke="#081b38"></path><path d="M922 615.1L879 600L817 600Z" fill="#df004a" stroke="#df004a"></path><path d="M817 600L879 600L805 566.3Z" fill="#081b38" stroke="#081b38"></path><path d="M-25 519.4L0 497.1L0 473.6Z" fill="#81166b" stroke="#81166b"></path><path d="M0 473.6L0 497.1L42 460.3Z" fill="#1e214c" stroke="#1e214c"></path><path d="M-25 519.4L28 561.3L36 550.1Z" fill="#ff3400" stroke="#ff3400"></path><path d="M36 550.1L28 561.3L108 600Z" fill="#5e2167" stroke="#5e2167"></path><path d="M76 7.7L80 19.7L142 45.9Z" fill="#001122" stroke="#001122"></path><path d="M105 49.9L80 19.7L61 80.4Z" fill="#a40067" stroke="#a40067"></path><path d="M61 80.4L24 104.9L79 101.6Z" fill="#5e2167" stroke="#5e2167"></path><path d="M0 84.9L24 104.9L61 80.4Z" fill="#5e2167" stroke="#5e2167"></path><path d="M24 104.9L0 148.4L79 101.6Z" fill="#a40067" stroke="#a40067"></path><path d="M-13 146.6L-36 308L0 210.1Z" fill="#001122" stroke="#001122"></path><path d="M-13 146.6L0 210.1L0 205.3Z" fill="#a40067" stroke="#a40067"></path><path d="M-17 398.7L-25 519.4L0 452.4Z" fill="#df004a" stroke="#df004a"></path><path d="M870 0L847 0L827 62.6Z" fill="#ff3400" stroke="#ff3400"></path><path d="M790 0L816 -38.1L765 0Z" fill="#5e2167" stroke="#5e2167"></path><path d="M179 0L76 7.7L142 45.9Z" fill="#ff3400" stroke="#ff3400"></path><path d="M80 19.7L56 0L61 80.4Z" fill="#001122" stroke="#001122"></path><path d="M24 104.9L0 127.6L0 148.4Z" fill="#81166b" stroke="#81166b"></path><path d="M847 0L816 -38.1L790 0Z" fill="#3c245d" stroke="#3c245d"></path><path d="M415 -12.1L69 0L179 0Z" fill="#f30031" stroke="#f30031"></path><path d="M920 30.7L900 63.7L900 104.6Z" fill="#1e214c" stroke="#1e214c"></path><path d="M900 104.6L900 63.7L827 62.6Z" fill="#ff3400" stroke="#ff3400"></path><path d="M847 0L870 0L816 -38.1Z" fill="#3c245d" stroke="#3c245d"></path><path d="M0 122.7L0 127.6L24 104.9Z" fill="#ff3400" stroke="#ff3400"></path><path d="M0 148.4L-13 146.6L0 205.3Z" fill="#081b38" stroke="#081b38"></path><path d="M922 615.1L900 600L879 600Z" fill="#c4005c" stroke="#c4005c"></path><path d="M879 600L900 600L900 561.4Z" fill="#001122" stroke="#001122"></path><path d="M900 561.4L922 615.1L900 519.1Z" fill="#ff3400" stroke="#ff3400"></path><path d="M924 423.6L922 615.1L938 324Z" fill="#ff3400" stroke="#ff3400"></path><path d="M0 84.9L0 122.7L24 104.9Z" fill="#3c245d" stroke="#3c245d"></path><path d="M0 127.6L-13 146.6L0 148.4Z" fill="#1e214c" stroke="#1e214c"></path><path d="M0 122.7L-13 146.6L0 127.6Z" fill="#5e2167" stroke="#5e2167"></path><path d="M17 600L13 572.1L0 600Z" fill="#1e214c" stroke="#1e214c"></path><path d="M-25 519.4L13 572.1L28 561.3Z" fill="#5e2167" stroke="#5e2167"></path><path d="M28 561.3L17 600L108 600Z" fill="#df004a" stroke="#df004a"></path><path d="M179 0L69 0L76 7.7Z" fill="#df004a" stroke="#df004a"></path><path d="M76 7.7L56 0L80 19.7Z" fill="#c4005c" stroke="#c4005c"></path><path d="M56 0L69 0L415 -12.1Z" fill="#001122" stroke="#001122"></path><path d="M900 27.9L870 0L827 62.6Z" fill="#df004a" stroke="#df004a"></path><path d="M-25 519.4L36 550.1L0 497.1Z" fill="#df004a" stroke="#df004a"></path><path d="M13 572.1L17 600L28 561.3Z" fill="#c4005c" stroke="#c4005c"></path><path d="M108 600L17 600L670 641.1Z" fill="#3c245d" stroke="#3c245d"></path><path d="M-36 308L-25 519.4L-17 398.7Z" fill="#001122" stroke="#001122"></path><path d="M0 0L56 0L415 -12.1Z" fill="#3c245d" stroke="#3c245d"></path><path d="M69 0L56 0L76 7.7Z" fill="#1e214c" stroke="#1e214c"></path><path d="M0 122.7L0 84.9L-13 146.6Z" fill="#df004a" stroke="#df004a"></path><path d="M0 0L0 84.9L61 80.4Z" fill="#f30031" stroke="#f30031"></path><path d="M920 30.7L900 27.9L900 63.7Z" fill="#5e2167" stroke="#5e2167"></path><path d="M900 63.7L900 27.9L827 62.6Z" fill="#5e2167" stroke="#5e2167"></path><path d="M670 641.1L922 615.1L817 600Z" fill="#081b38" stroke="#081b38"></path><path d="M900 600L922 615.1L900 561.4Z" fill="#a40067" stroke="#a40067"></path><path d="M-25 519.4L0 600L13 572.1Z" fill="#3c245d" stroke="#3c245d"></path><path d="M17 600L0 600L670 641.1Z" fill="#5e2167" stroke="#5e2167"></path><path d="M938 324L920 30.7L917 140.4Z" fill="#1e214c" stroke="#1e214c"></path><path d="M917 140.4L920 30.7L900 104.6Z" fill="#df004a" stroke="#df004a"></path><path d="M900 27.9L900 0L870 0Z" fill="#df004a" stroke="#df004a"></path><path d="M870 0L900 0L816 -38.1Z" fill="#c4005c" stroke="#c4005c"></path><path d="M920 30.7L900 0L900 27.9Z" fill="#a40067" stroke="#a40067"></path><path d="M56 0L0 0L61 80.4Z" fill="#5e2167" stroke="#5e2167"></path><path d="M0 84.9L0 0L-13 146.6Z" fill="#df004a" stroke="#df004a"></path><path d="M-13 146.6L0 0L-36 308Z" fill="#081b38" stroke="#081b38"></path><path d="M816 -38.1L0 0L415 -12.1Z" fill="#df004a" stroke="#df004a"></path></g></svg>