<svg id="visual" viewBox="0 0 900 600" width="900" height="600" xmlns="http://www.w3.org/2000/svg" xmlns:xlink="http://www.w3.org/1999/xlink" version="1.1"><g stroke-width="1" stroke-linejoin="bevel"><path d="M413 307L449 255L405 287Z" fill="#727272" stroke="#727272"></path><path d="M449 255L434 252L405 287Z" fill="#3f3f3f" stroke="#3f3f3f"></path><path d="M449 255L449 248L434 252Z" fill="#585858" stroke="#585858"></path><path d="M434 252L389 275L405 287Z" fill="#1d1d1d" stroke="#1d1d1d"></path><path d="M405 287L389 275L413 307Z" fill="#656565" stroke="#656565"></path><path d="M449 248L444 233L434 252Z" fill="#808080" stroke="#808080"></path><path d="M434 252L381 264L389 275Z" fill="#121212" stroke="#121212"></path><path d="M424 208L381 264L434 252Z" fill="#585858" stroke="#585858"></path><path d="M393 356L417 346L413 307Z" fill="#585858" stroke="#585858"></path><path d="M413 307L481 334L449 255Z" fill="#3f3f3f" stroke="#3f3f3f"></path><path d="M393 356L413 307L347 341Z" fill="#121212" stroke="#121212"></path><path d="M417 346L481 334L413 307Z" fill="#1d1d1d" stroke="#1d1d1d"></path><path d="M449 255L491 239L449 248Z" fill="#585858" stroke="#585858"></path><path d="M449 248L491 239L444 233Z" fill="#121212" stroke="#121212"></path><path d="M481 334L491 239L449 255Z" fill="#1d1d1d" stroke="#1d1d1d"></path><path d="M417 346L440 362L481 334Z" fill="#121212" stroke="#121212"></path><path d="M461 183L424 208L444 233Z" fill="#282828" stroke="#282828"></path><path d="M444 233L424 208L434 252Z" fill="#1d1d1d" stroke="#1d1d1d"></path><path d="M347 341L413 307L389 275Z" fill="#1d1d1d" stroke="#1d1d1d"></path><path d="M417 346L393 356L440 362Z" fill="#585858" stroke="#585858"></path><path d="M424 208L377 206L381 264Z" fill="#808080" stroke="#808080"></path><path d="M491 239L464 184L444 233Z" fill="#333333" stroke="#333333"></path><path d="M424 208L411 159L377 206Z" fill="#282828" stroke="#282828"></path><path d="M464 184L461 183L444 233Z" fill="#656565" stroke="#656565"></path><path d="M329 253L347 341L381 264Z" fill="#3f3f3f" stroke="#3f3f3f"></path><path d="M381 264L347 341L389 275Z" fill="#585858" stroke="#585858"></path><path d="M440 362L476 387L481 334Z" fill="#3f3f3f" stroke="#3f3f3f"></path><path d="M561 268L538 233L491 239Z" fill="#000000" stroke="#000000"></path><path d="M477 440L476 387L424 456Z" fill="#000000" stroke="#000000"></path><path d="M476 387L440 362L424 456Z" fill="#727272" stroke="#727272"></path><path d="M561 268L491 239L481 334Z" fill="#121212" stroke="#121212"></path><path d="M491 239L538 233L464 184Z" fill="#121212" stroke="#121212"></path><path d="M377 206L329 253L381 264Z" fill="#1d1d1d" stroke="#1d1d1d"></path><path d="M314 337L346 365L347 341Z" fill="#585858" stroke="#585858"></path><path d="M347 341L346 365L393 356Z" fill="#121212" stroke="#121212"></path><path d="M476 387L541 355L481 334Z" fill="#121212" stroke="#121212"></path><path d="M571 314L561 268L481 334Z" fill="#585858" stroke="#585858"></path><path d="M427 130L411 159L461 183Z" fill="#333333" stroke="#333333"></path><path d="M461 183L411 159L424 208Z" fill="#333333" stroke="#333333"></path><path d="M377 206L304 214L329 253Z" fill="#656565" stroke="#656565"></path><path d="M329 253L314 337L347 341Z" fill="#3f3f3f" stroke="#3f3f3f"></path><path d="M541 355L571 314L481 334Z" fill="#1d1d1d" stroke="#1d1d1d"></path><path d="M594 263L576 251L561 268Z" fill="#727272" stroke="#727272"></path><path d="M561 268L576 251L538 233Z" fill="#585858" stroke="#585858"></path><path d="M426 101L427 130L432 99Z" fill="#333333" stroke="#333333"></path><path d="M322 177L304 214L377 206Z" fill="#1d1d1d" stroke="#1d1d1d"></path><path d="M329 253L275 288L314 337Z" fill="#1d1d1d" stroke="#1d1d1d"></path><path d="M505 98L427 130L461 183Z" fill="#1d1d1d" stroke="#1d1d1d"></path><path d="M381 133L322 177L377 206Z" fill="#3f3f3f" stroke="#3f3f3f"></path><path d="M505 98L464 184L538 233Z" fill="#1d1d1d" stroke="#1d1d1d"></path><path d="M571 314L594 263L561 268Z" fill="#3f3f3f" stroke="#3f3f3f"></path><path d="M576 251L583 222L538 233Z" fill="#000000" stroke="#000000"></path><path d="M381 133L377 206L411 159Z" fill="#3f3f3f" stroke="#3f3f3f"></path><path d="M594 263L583 222L576 251Z" fill="#282828" stroke="#282828"></path><path d="M380 435L440 362L393 356Z" fill="#585858" stroke="#585858"></path><path d="M476 387L518 437L541 355Z" fill="#000000" stroke="#000000"></path><path d="M334 428L380 435L346 365Z" fill="#4b4b4b" stroke="#4b4b4b"></path><path d="M346 365L380 435L393 356Z" fill="#1d1d1d" stroke="#1d1d1d"></path><path d="M322 177L304 194L304 214Z" fill="#000000" stroke="#000000"></path><path d="M266 285L275 288L266 273Z" fill="#4b4b4b" stroke="#4b4b4b"></path><path d="M266 273L275 288L329 253Z" fill="#333333" stroke="#333333"></path><path d="M281 379L323 419L346 365Z" fill="#656565" stroke="#656565"></path><path d="M427 130L381 133L411 159Z" fill="#3f3f3f" stroke="#3f3f3f"></path><path d="M275 288L275 324L314 337Z" fill="#333333" stroke="#333333"></path><path d="M571 314L604 268L594 263Z" fill="#3f3f3f" stroke="#3f3f3f"></path><path d="M594 263L604 268L583 222Z" fill="#656565" stroke="#656565"></path><path d="M380 435L424 456L440 362Z" fill="#1d1d1d" stroke="#1d1d1d"></path><path d="M490 469L518 437L477 440Z" fill="#808080" stroke="#808080"></path><path d="M477 440L518 437L476 387Z" fill="#121212" stroke="#121212"></path><path d="M541 355L578 390L571 314Z" fill="#656565" stroke="#656565"></path><path d="M571 314L642 264L604 268Z" fill="#3f3f3f" stroke="#3f3f3f"></path><path d="M266 273L329 253L304 214Z" fill="#585858" stroke="#585858"></path><path d="M275 288L266 285L275 324Z" fill="#333333" stroke="#333333"></path><path d="M279 196L266 273L304 214Z" fill="#808080" stroke="#808080"></path><path d="M518 437L578 390L541 355Z" fill="#282828" stroke="#282828"></path><path d="M281 379L346 365L314 337Z" fill="#282828" stroke="#282828"></path><path d="M380 435L368 486L424 456Z" fill="#121212" stroke="#121212"></path><path d="M323 419L334 428L346 365Z" fill="#4b4b4b" stroke="#4b4b4b"></path><path d="M305 126L279 196L304 194Z" fill="#585858" stroke="#585858"></path><path d="M304 194L279 196L304 214Z" fill="#808080" stroke="#808080"></path><path d="M305 126L304 194L322 177Z" fill="#000000" stroke="#000000"></path><path d="M240 360L281 379L275 324Z" fill="#727272" stroke="#727272"></path><path d="M275 324L281 379L314 337Z" fill="#4b4b4b" stroke="#4b4b4b"></path><path d="M432 99L427 130L505 98Z" fill="#121212" stroke="#121212"></path><path d="M427 130L426 101L381 133Z" fill="#121212" stroke="#121212"></path><path d="M381 133L305 126L322 177Z" fill="#282828" stroke="#282828"></path><path d="M281 379L312 423L323 419Z" fill="#1d1d1d" stroke="#1d1d1d"></path><path d="M323 419L312 423L334 428Z" fill="#727272" stroke="#727272"></path><path d="M334 428L368 486L380 435Z" fill="#656565" stroke="#656565"></path><path d="M505 98L461 183L464 184Z" fill="#656565" stroke="#656565"></path><path d="M424 456L490 469L477 440Z" fill="#333333" stroke="#333333"></path><path d="M518 437L573 439L578 390Z" fill="#727272" stroke="#727272"></path><path d="M583 222L505 98L538 233Z" fill="#808080" stroke="#808080"></path><path d="M505 479L573 439L518 437Z" fill="#585858" stroke="#585858"></path><path d="M656 267L642 264L571 314Z" fill="#808080" stroke="#808080"></path><path d="M490 469L505 479L518 437Z" fill="#1d1d1d" stroke="#1d1d1d"></path><path d="M421 513L505 479L490 469Z" fill="#1d1d1d" stroke="#1d1d1d"></path><path d="M656 267L571 314L626 417Z" fill="#808080" stroke="#808080"></path><path d="M604 268L642 264L583 222Z" fill="#656565" stroke="#656565"></path><path d="M583 222L620 171L505 98Z" fill="#3f3f3f" stroke="#3f3f3f"></path><path d="M409 75L426 101L432 99Z" fill="#282828" stroke="#282828"></path><path d="M409 75L404 81L426 101Z" fill="#808080" stroke="#808080"></path><path d="M426 101L404 81L381 133Z" fill="#1d1d1d" stroke="#1d1d1d"></path><path d="M318 76L305 126L381 133Z" fill="#808080" stroke="#808080"></path><path d="M198 339L240 360L275 324Z" fill="#1d1d1d" stroke="#1d1d1d"></path><path d="M281 379L285 435L312 423Z" fill="#656565" stroke="#656565"></path><path d="M208 280L275 324L266 285Z" fill="#4b4b4b" stroke="#4b4b4b"></path><path d="M208 280L266 285L266 273Z" fill="#656565" stroke="#656565"></path><path d="M296 458L334 428L312 423Z" fill="#4b4b4b" stroke="#4b4b4b"></path><path d="M296 458L368 486L334 428Z" fill="#585858" stroke="#585858"></path><path d="M424 456L421 513L490 469Z" fill="#727272" stroke="#727272"></path><path d="M453 67L409 75L432 99Z" fill="#3f3f3f" stroke="#3f3f3f"></path><path d="M404 81L318 76L381 133Z" fill="#727272" stroke="#727272"></path><path d="M268 450L285 435L281 379Z" fill="#000000" stroke="#000000"></path><path d="M642 264L620 171L583 222Z" fill="#727272" stroke="#727272"></path><path d="M580 516L589 443L573 439Z" fill="#727272" stroke="#727272"></path><path d="M573 439L589 443L578 390Z" fill="#585858" stroke="#585858"></path><path d="M505 98L453 67L432 99Z" fill="#3f3f3f" stroke="#3f3f3f"></path><path d="M626 417L571 314L578 390Z" fill="#585858" stroke="#585858"></path><path d="M642 264L690 172L620 171Z" fill="#121212" stroke="#121212"></path><path d="M285 435L296 458L312 423Z" fill="#333333" stroke="#333333"></path><path d="M268 450L296 458L285 435Z" fill="#656565" stroke="#656565"></path><path d="M422 559L421 513L368 486Z" fill="#585858" stroke="#585858"></path><path d="M368 486L421 513L424 456Z" fill="#333333" stroke="#333333"></path><path d="M226 179L266 273L279 196Z" fill="#808080" stroke="#808080"></path><path d="M226 179L208 280L266 273Z" fill="#121212" stroke="#121212"></path><path d="M589 443L626 417L578 390Z" fill="#333333" stroke="#333333"></path><path d="M166 456L268 450L240 360Z" fill="#4b4b4b" stroke="#4b4b4b"></path><path d="M240 360L268 450L281 379Z" fill="#4b4b4b" stroke="#4b4b4b"></path><path d="M296 458L323 550L368 486Z" fill="#4b4b4b" stroke="#4b4b4b"></path><path d="M305 126L226 179L279 196Z" fill="#000000" stroke="#000000"></path><path d="M332 0L318 76L404 81Z" fill="#333333" stroke="#333333"></path><path d="M305 126L211 138L226 179Z" fill="#333333" stroke="#333333"></path><path d="M332 0L404 81L409 75Z" fill="#282828" stroke="#282828"></path><path d="M690 172L640 152L620 171Z" fill="#585858" stroke="#585858"></path><path d="M620 171L634 101L505 98Z" fill="#1d1d1d" stroke="#1d1d1d"></path><path d="M479 0L438 0L453 67Z" fill="#1d1d1d" stroke="#1d1d1d"></path><path d="M208 280L198 339L275 324Z" fill="#000000" stroke="#000000"></path><path d="M208 280L190 302L198 339Z" fill="#3f3f3f" stroke="#3f3f3f"></path><path d="M167 293L190 302L208 280Z" fill="#3f3f3f" stroke="#3f3f3f"></path><path d="M721 286L686 264L656 267Z" fill="#656565" stroke="#656565"></path><path d="M708 203L690 172L642 264Z" fill="#000000" stroke="#000000"></path><path d="M166 456L264 474L268 450Z" fill="#000000" stroke="#000000"></path><path d="M268 450L264 474L296 458Z" fill="#000000" stroke="#000000"></path><path d="M672 127L634 101L640 152Z" fill="#121212" stroke="#121212"></path><path d="M640 152L634 101L620 171Z" fill="#727272" stroke="#727272"></path><path d="M196 106L211 138L305 126Z" fill="#808080" stroke="#808080"></path><path d="M156 258L167 293L208 280Z" fill="#000000" stroke="#000000"></path><path d="M190 302L167 293L198 339Z" fill="#4b4b4b" stroke="#4b4b4b"></path><path d="M166 456L250 520L264 474Z" fill="#4b4b4b" stroke="#4b4b4b"></path><path d="M156 258L208 280L148 240Z" fill="#727272" stroke="#727272"></path><path d="M505 479L580 516L573 439Z" fill="#3f3f3f" stroke="#3f3f3f"></path><path d="M589 443L663 473L626 417Z" fill="#3f3f3f" stroke="#3f3f3f"></path><path d="M559 539L580 516L505 479Z" fill="#333333" stroke="#333333"></path><path d="M323 550L422 559L368 486Z" fill="#727272" stroke="#727272"></path><path d="M421 513L511 582L505 479Z" fill="#121212" stroke="#121212"></path><path d="M708 203L642 264L656 267Z" fill="#282828" stroke="#282828"></path><path d="M621 53L606 61L634 101Z" fill="#1d1d1d" stroke="#1d1d1d"></path><path d="M634 101L606 61L505 98Z" fill="#000000" stroke="#000000"></path><path d="M438 0L427 5L453 67Z" fill="#282828" stroke="#282828"></path><path d="M453 67L427 5L409 75Z" fill="#121212" stroke="#121212"></path><path d="M224 42L196 106L305 126Z" fill="#1d1d1d" stroke="#1d1d1d"></path><path d="M511 582L559 539L505 479Z" fill="#000000" stroke="#000000"></path><path d="M686 264L708 203L656 267Z" fill="#656565" stroke="#656565"></path><path d="M148 240L208 280L226 179Z" fill="#808080" stroke="#808080"></path><path d="M743 132L672 127L690 172Z" fill="#3f3f3f" stroke="#3f3f3f"></path><path d="M690 172L672 127L640 152Z" fill="#282828" stroke="#282828"></path><path d="M688 419L656 267L626 417Z" fill="#1d1d1d" stroke="#1d1d1d"></path><path d="M688 419L721 286L656 267Z" fill="#282828" stroke="#282828"></path><path d="M686 264L721 286L708 203Z" fill="#333333" stroke="#333333"></path><path d="M663 473L589 443L659 483Z" fill="#1d1d1d" stroke="#1d1d1d"></path><path d="M663 473L688 419L626 417Z" fill="#656565" stroke="#656565"></path><path d="M479 0L453 67L481 0Z" fill="#1d1d1d" stroke="#1d1d1d"></path><path d="M264 474L323 550L296 458Z" fill="#121212" stroke="#121212"></path><path d="M481 0L453 67L505 98Z" fill="#000000" stroke="#000000"></path><path d="M524 0L481 0L505 98Z" fill="#3f3f3f" stroke="#3f3f3f"></path><path d="M144 208L148 240L226 179Z" fill="#3f3f3f" stroke="#3f3f3f"></path><path d="M156 258L145 260L167 293Z" fill="#282828" stroke="#282828"></path><path d="M659 483L589 443L655 501Z" fill="#585858" stroke="#585858"></path><path d="M148 240L145 260L156 258Z" fill="#121212" stroke="#121212"></path><path d="M166 456L240 360L198 339Z" fill="#4b4b4b" stroke="#4b4b4b"></path><path d="M708 203L717 190L690 172Z" fill="#121212" stroke="#121212"></path><path d="M742 184L717 190L757 214Z" fill="#000000" stroke="#000000"></path><path d="M718 43L621 53L634 101Z" fill="#3f3f3f" stroke="#3f3f3f"></path><path d="M606 61L524 0L505 98Z" fill="#727272" stroke="#727272"></path><path d="M718 43L634 101L672 127Z" fill="#1d1d1d" stroke="#1d1d1d"></path><path d="M655 501L589 443L580 516Z" fill="#585858" stroke="#585858"></path><path d="M663 473L697 461L688 419Z" fill="#727272" stroke="#727272"></path><path d="M621 53L524 0L606 61Z" fill="#121212" stroke="#121212"></path><path d="M166 456L198 339L130 456Z" fill="#333333" stroke="#333333"></path><path d="M264 474L250 520L323 550Z" fill="#000000" stroke="#000000"></path><path d="M224 42L305 126L318 76Z" fill="#727272" stroke="#727272"></path><path d="M154 145L144 208L226 179Z" fill="#3f3f3f" stroke="#3f3f3f"></path><path d="M332 0L409 75L427 5Z" fill="#727272" stroke="#727272"></path><path d="M148 240L106 280L145 260Z" fill="#656565" stroke="#656565"></path><path d="M154 145L226 179L211 138Z" fill="#808080" stroke="#808080"></path><path d="M438 0L332 0L427 5Z" fill="#4b4b4b" stroke="#4b4b4b"></path><path d="M544 600L585 553L559 539Z" fill="#4b4b4b" stroke="#4b4b4b"></path><path d="M559 539L585 553L580 516Z" fill="#3f3f3f" stroke="#3f3f3f"></path><path d="M466 600L511 582L422 559Z" fill="#282828" stroke="#282828"></path><path d="M422 559L511 582L421 513Z" fill="#1d1d1d" stroke="#1d1d1d"></path><path d="M585 553L655 501L580 516Z" fill="#121212" stroke="#121212"></path><path d="M695 480L697 461L663 473Z" fill="#727272" stroke="#727272"></path><path d="M332 0L318 0L318 76Z" fill="#333333" stroke="#333333"></path><path d="M675 495L663 473L659 483Z" fill="#333333" stroke="#333333"></path><path d="M688 419L766 348L721 286Z" fill="#656565" stroke="#656565"></path><path d="M318 0L307 0L318 76Z" fill="#282828" stroke="#282828"></path><path d="M415 600L422 559L373 600Z" fill="#000000" stroke="#000000"></path><path d="M415 600L419 600L422 559Z" fill="#121212" stroke="#121212"></path><path d="M373 600L422 559L323 550Z" fill="#4b4b4b" stroke="#4b4b4b"></path><path d="M419 600L466 600L422 559Z" fill="#1d1d1d" stroke="#1d1d1d"></path><path d="M511 582L544 600L559 539Z" fill="#000000" stroke="#000000"></path><path d="M160 97L154 145L196 106Z" fill="#656565" stroke="#656565"></path><path d="M196 106L154 145L211 138Z" fill="#333333" stroke="#333333"></path><path d="M689 592L675 495L655 501Z" fill="#3f3f3f" stroke="#3f3f3f"></path><path d="M655 501L675 495L659 483Z" fill="#333333" stroke="#333333"></path><path d="M307 0L296 0L318 76Z" fill="#585858" stroke="#585858"></path><path d="M55 356L198 339L167 293Z" fill="#808080" stroke="#808080"></path><path d="M675 495L688 486L663 473Z" fill="#585858" stroke="#585858"></path><path d="M757 214L717 190L708 203Z" fill="#3f3f3f" stroke="#3f3f3f"></path><path d="M717 190L743 132L690 172Z" fill="#333333" stroke="#333333"></path><path d="M746 180L742 184L757 214Z" fill="#808080" stroke="#808080"></path><path d="M319 589L373 600L323 550Z" fill="#656565" stroke="#656565"></path><path d="M296 0L289 0L318 76Z" fill="#000000" stroke="#000000"></path><path d="M688 486L695 480L663 473Z" fill="#4b4b4b" stroke="#4b4b4b"></path><path d="M757 214L708 203L721 286Z" fill="#4b4b4b" stroke="#4b4b4b"></path><path d="M289 0L224 42L318 76Z" fill="#121212" stroke="#121212"></path><path d="M321 602L319 589L240 600Z" fill="#4b4b4b" stroke="#4b4b4b"></path><path d="M240 600L319 589L323 550Z" fill="#121212" stroke="#121212"></path><path d="M757 214L721 286L818 270Z" fill="#121212" stroke="#121212"></path><path d="M742 184L746 180L717 190Z" fill="#282828" stroke="#282828"></path><path d="M224 42L189 73L196 106Z" fill="#1d1d1d" stroke="#1d1d1d"></path><path d="M766 348L688 419L779 450Z" fill="#000000" stroke="#000000"></path><path d="M65 217L106 280L148 240Z" fill="#656565" stroke="#656565"></path><path d="M145 260L106 280L167 293Z" fill="#585858" stroke="#585858"></path><path d="M65 217L148 240L144 208Z" fill="#000000" stroke="#000000"></path><path d="M466 600L544 600L511 582Z" fill="#1d1d1d" stroke="#1d1d1d"></path><path d="M585 553L653 600L655 501Z" fill="#121212" stroke="#121212"></path><path d="M794 494L695 480L757 600Z" fill="#727272" stroke="#727272"></path><path d="M796 334L766 348L814 369Z" fill="#808080" stroke="#808080"></path><path d="M189 73L160 97L196 106Z" fill="#808080" stroke="#808080"></path><path d="M154 145L89 153L144 208Z" fill="#4b4b4b" stroke="#4b4b4b"></path><path d="M113 73L160 97L121 42Z" fill="#585858" stroke="#585858"></path><path d="M240 600L323 550L250 520Z" fill="#585858" stroke="#585858"></path><path d="M319 589L321 602L373 600Z" fill="#808080" stroke="#808080"></path><path d="M373 600L616 637L415 600Z" fill="#282828" stroke="#282828"></path><path d="M415 600L616 637L419 600Z" fill="#656565" stroke="#656565"></path><path d="M419 600L616 637L466 600Z" fill="#3f3f3f" stroke="#3f3f3f"></path><path d="M466 600L616 637L544 600Z" fill="#4b4b4b" stroke="#4b4b4b"></path><path d="M289 0L206 0L224 42Z" fill="#1d1d1d" stroke="#1d1d1d"></path><path d="M224 42L206 0L189 73Z" fill="#3f3f3f" stroke="#3f3f3f"></path><path d="M296 0L288 -17L289 0Z" fill="#808080" stroke="#808080"></path><path d="M307 0L288 -17L296 0Z" fill="#000000" stroke="#000000"></path><path d="M318 0L288 -17L307 0Z" fill="#282828" stroke="#282828"></path><path d="M332 0L288 -17L318 0Z" fill="#000000" stroke="#000000"></path><path d="M438 0L288 -17L332 0Z" fill="#585858" stroke="#585858"></path><path d="M479 0L288 -17L438 0Z" fill="#282828" stroke="#282828"></path><path d="M707 -35L288 -17L479 0Z" fill="#808080" stroke="#808080"></path><path d="M707 -35L479 0L481 0Z" fill="#727272" stroke="#727272"></path><path d="M783 164L743 132L746 180Z" fill="#4b4b4b" stroke="#4b4b4b"></path><path d="M746 180L743 132L717 190Z" fill="#333333" stroke="#333333"></path><path d="M616 637L588 600L544 600Z" fill="#808080" stroke="#808080"></path><path d="M544 600L588 600L585 553Z" fill="#121212" stroke="#121212"></path><path d="M794 494L777 454L695 480Z" fill="#4b4b4b" stroke="#4b4b4b"></path><path d="M90 445L130 456L55 356Z" fill="#656565" stroke="#656565"></path><path d="M220 600L240 600L250 520Z" fill="#585858" stroke="#585858"></path><path d="M777 454L688 419L697 461Z" fill="#3f3f3f" stroke="#3f3f3f"></path><path d="M766 348L796 334L721 286Z" fill="#282828" stroke="#282828"></path><path d="M757 214L783 164L746 180Z" fill="#1d1d1d" stroke="#1d1d1d"></path><path d="M797 169L783 164L757 214Z" fill="#333333" stroke="#333333"></path><path d="M288 -17L206 0L289 0Z" fill="#4b4b4b" stroke="#4b4b4b"></path><path d="M783 164L765 118L743 132Z" fill="#000000" stroke="#000000"></path><path d="M743 132L718 43L672 127Z" fill="#585858" stroke="#585858"></path><path d="M621 53L707 -35L524 0Z" fill="#727272" stroke="#727272"></path><path d="M765 118L718 43L743 132Z" fill="#585858" stroke="#585858"></path><path d="M220 600L250 520L215 600Z" fill="#585858" stroke="#585858"></path><path d="M106 110L154 145L160 97Z" fill="#333333" stroke="#333333"></path><path d="M106 110L89 153L154 145Z" fill="#282828" stroke="#282828"></path><path d="M113 73L106 110L160 97Z" fill="#282828" stroke="#282828"></path><path d="M43 265L63 313L106 280Z" fill="#4b4b4b" stroke="#4b4b4b"></path><path d="M106 280L55 356L167 293Z" fill="#1d1d1d" stroke="#1d1d1d"></path><path d="M818 270L797 169L757 214Z" fill="#3f3f3f" stroke="#3f3f3f"></path><path d="M783 164L781 118L765 118Z" fill="#3f3f3f" stroke="#3f3f3f"></path><path d="M765 118L747 33L718 43Z" fill="#585858" stroke="#585858"></path><path d="M89 153L65 217L144 208Z" fill="#282828" stroke="#282828"></path><path d="M689 592L688 486L675 495Z" fill="#3f3f3f" stroke="#3f3f3f"></path><path d="M695 480L777 454L697 461Z" fill="#727272" stroke="#727272"></path><path d="M777 454L779 450L688 419Z" fill="#282828" stroke="#282828"></path><path d="M796 334L817 276L721 286Z" fill="#333333" stroke="#333333"></path><path d="M846 325L817 276L796 334Z" fill="#282828" stroke="#282828"></path><path d="M90 445L103 466L130 456Z" fill="#727272" stroke="#727272"></path><path d="M215 600L250 520L129 551Z" fill="#3f3f3f" stroke="#3f3f3f"></path><path d="M817 276L818 270L721 286Z" fill="#808080" stroke="#808080"></path><path d="M616 637L653 600L588 600Z" fill="#333333" stroke="#333333"></path><path d="M588 600L653 600L585 553Z" fill="#727272" stroke="#727272"></path><path d="M811 139L781 118L783 164Z" fill="#727272" stroke="#727272"></path><path d="M81 637L616 637L321 602Z" fill="#585858" stroke="#585858"></path><path d="M250 520L166 456L129 551Z" fill="#121212" stroke="#121212"></path><path d="M55 356L130 456L198 339Z" fill="#000000" stroke="#000000"></path><path d="M109 523L166 456L130 456Z" fill="#808080" stroke="#808080"></path><path d="M81 637L321 602L240 600Z" fill="#282828" stroke="#282828"></path><path d="M779 450L814 369L766 348Z" fill="#333333" stroke="#333333"></path><path d="M817 276L845 259L818 270Z" fill="#808080" stroke="#808080"></path><path d="M106 110L0 112L89 153Z" fill="#333333" stroke="#333333"></path><path d="M41 227L43 265L65 217Z" fill="#656565" stroke="#656565"></path><path d="M121 42L160 97L189 73Z" fill="#727272" stroke="#727272"></path><path d="M5 325L55 356L63 313Z" fill="#121212" stroke="#121212"></path><path d="M63 313L55 356L106 280Z" fill="#656565" stroke="#656565"></path><path d="M321 602L616 637L373 600Z" fill="#000000" stroke="#000000"></path><path d="M81 637L240 600L220 600Z" fill="#000000" stroke="#000000"></path><path d="M41 227L65 217L0 211Z" fill="#1d1d1d" stroke="#1d1d1d"></path><path d="M65 217L43 265L106 280Z" fill="#121212" stroke="#121212"></path><path d="M693 596L689 592L653 600Z" fill="#000000" stroke="#000000"></path><path d="M653 600L689 592L655 501Z" fill="#3f3f3f" stroke="#3f3f3f"></path><path d="M781 118L747 33L765 118Z" fill="#000000" stroke="#000000"></path><path d="M718 43L717 0L621 53Z" fill="#1d1d1d" stroke="#1d1d1d"></path><path d="M206 0L121 42L189 73Z" fill="#4b4b4b" stroke="#4b4b4b"></path><path d="M0 211L65 217L0 144Z" fill="#3f3f3f" stroke="#3f3f3f"></path><path d="M720 0L717 0L718 43Z" fill="#1d1d1d" stroke="#1d1d1d"></path><path d="M524 0L707 -35L481 0Z" fill="#3f3f3f" stroke="#3f3f3f"></path><path d="M78 67L106 110L113 73Z" fill="#4b4b4b" stroke="#4b4b4b"></path><path d="M781 118L816 24L747 33Z" fill="#000000" stroke="#000000"></path><path d="M797 169L811 139L783 164Z" fill="#4b4b4b" stroke="#4b4b4b"></path><path d="M821 131L811 139L872 170Z" fill="#3f3f3f" stroke="#3f3f3f"></path><path d="M729 0L720 0L718 43Z" fill="#333333" stroke="#333333"></path><path d="M717 0L707 -35L621 53Z" fill="#282828" stroke="#282828"></path><path d="M699 600L693 596L653 600Z" fill="#121212" stroke="#121212"></path><path d="M757 600L695 480L688 486Z" fill="#4b4b4b" stroke="#4b4b4b"></path><path d="M90 445L71 456L103 466Z" fill="#1d1d1d" stroke="#1d1d1d"></path><path d="M103 466L109 523L130 456Z" fill="#000000" stroke="#000000"></path><path d="M59 442L71 456L90 445Z" fill="#1d1d1d" stroke="#1d1d1d"></path><path d="M71 456L109 523L103 466Z" fill="#3f3f3f" stroke="#3f3f3f"></path><path d="M109 523L129 551L166 456Z" fill="#656565" stroke="#656565"></path><path d="M816 24L729 0L747 33Z" fill="#121212" stroke="#121212"></path><path d="M747 33L729 0L718 43Z" fill="#4b4b4b" stroke="#4b4b4b"></path><path d="M720 0L707 -35L717 0Z" fill="#282828" stroke="#282828"></path><path d="M846 325L845 259L817 276Z" fill="#727272" stroke="#727272"></path><path d="M818 270L845 259L797 169Z" fill="#585858" stroke="#585858"></path><path d="M616 637L699 600L653 600Z" fill="#808080" stroke="#808080"></path><path d="M693 596L699 600L689 592Z" fill="#727272" stroke="#727272"></path><path d="M71 456L44 544L109 523Z" fill="#000000" stroke="#000000"></path><path d="M55 356L59 442L90 445Z" fill="#4b4b4b" stroke="#4b4b4b"></path><path d="M44 451L59 442L0 390Z" fill="#1d1d1d" stroke="#1d1d1d"></path><path d="M858 340L846 325L814 369Z" fill="#585858" stroke="#585858"></path><path d="M814 369L846 325L796 334Z" fill="#656565" stroke="#656565"></path><path d="M830 410L814 369L779 450Z" fill="#121212" stroke="#121212"></path><path d="M830 410L779 450L851 462Z" fill="#1d1d1d" stroke="#1d1d1d"></path><path d="M794 494L779 450L777 454Z" fill="#727272" stroke="#727272"></path><path d="M757 600L688 486L689 592Z" fill="#1d1d1d" stroke="#1d1d1d"></path><path d="M872 170L811 139L797 169Z" fill="#727272" stroke="#727272"></path><path d="M811 139L821 131L781 118Z" fill="#585858" stroke="#585858"></path><path d="M854 0L707 -35L729 0Z" fill="#4b4b4b" stroke="#4b4b4b"></path><path d="M729 0L707 -35L720 0Z" fill="#656565" stroke="#656565"></path><path d="M121 42L78 67L113 73Z" fill="#1d1d1d" stroke="#1d1d1d"></path><path d="M830 410L858 340L814 369Z" fill="#727272" stroke="#727272"></path><path d="M846 325L900 279L845 259Z" fill="#656565" stroke="#656565"></path><path d="M0 390L59 442L55 356Z" fill="#000000" stroke="#000000"></path><path d="M59 442L44 451L71 456Z" fill="#727272" stroke="#727272"></path><path d="M127 583L145 600L129 551Z" fill="#656565" stroke="#656565"></path><path d="M5 325L63 313L43 265Z" fill="#333333" stroke="#333333"></path><path d="M129 551L145 600L215 600Z" fill="#333333" stroke="#333333"></path><path d="M215 600L81 637L220 600Z" fill="#000000" stroke="#000000"></path><path d="M127 583L129 551L88 600Z" fill="#333333" stroke="#333333"></path><path d="M88 600L129 551L109 523Z" fill="#282828" stroke="#282828"></path><path d="M0 250L43 265L41 227Z" fill="#121212" stroke="#121212"></path><path d="M0 250L5 325L43 265Z" fill="#585858" stroke="#585858"></path><path d="M121 42L74 43L78 67Z" fill="#656565" stroke="#656565"></path><path d="M0 211L0 250L41 227Z" fill="#585858" stroke="#585858"></path><path d="M75 0L74 43L121 42Z" fill="#727272" stroke="#727272"></path><path d="M65 217L89 153L0 144Z" fill="#585858" stroke="#585858"></path><path d="M0 144L89 153L0 112Z" fill="#656565" stroke="#656565"></path><path d="M-14 369L0 379L5 325Z" fill="#282828" stroke="#282828"></path><path d="M5 325L0 379L55 356Z" fill="#727272" stroke="#727272"></path><path d="M699 600L757 600L689 592Z" fill="#656565" stroke="#656565"></path><path d="M794 494L851 462L779 450Z" fill="#656565" stroke="#656565"></path><path d="M900 383L896 344L858 340Z" fill="#727272" stroke="#727272"></path><path d="M616 637L757 600L699 600Z" fill="#585858" stroke="#585858"></path><path d="M848 499L851 462L794 494Z" fill="#1d1d1d" stroke="#1d1d1d"></path><path d="M900 258L872 170L845 259Z" fill="#4b4b4b" stroke="#4b4b4b"></path><path d="M845 259L872 170L797 169Z" fill="#1d1d1d" stroke="#1d1d1d"></path><path d="M821 131L816 24L781 118Z" fill="#282828" stroke="#282828"></path><path d="M900 279L846 325L900 311Z" fill="#1d1d1d" stroke="#1d1d1d"></path><path d="M0 379L0 390L55 356Z" fill="#4b4b4b" stroke="#4b4b4b"></path><path d="M44 451L44 544L71 456Z" fill="#282828" stroke="#282828"></path><path d="M757 600L819 532L794 494Z" fill="#1d1d1d" stroke="#1d1d1d"></path><path d="M0 390L14 456L44 451Z" fill="#3f3f3f" stroke="#3f3f3f"></path><path d="M0 379L-14 369L0 390Z" fill="#1d1d1d" stroke="#1d1d1d"></path><path d="M0 390L-23 423L14 456Z" fill="#808080" stroke="#808080"></path><path d="M-40 202L-14 369L5 325Z" fill="#121212" stroke="#121212"></path><path d="M-40 202L5 325L0 250Z" fill="#3f3f3f" stroke="#3f3f3f"></path><path d="M0 112L106 110L78 67Z" fill="#000000" stroke="#000000"></path><path d="M0 211L-40 202L0 250Z" fill="#808080" stroke="#808080"></path><path d="M882 56L816 24L821 131Z" fill="#585858" stroke="#585858"></path><path d="M206 0L75 0L121 42Z" fill="#333333" stroke="#333333"></path><path d="M0 68L0 112L78 67Z" fill="#808080" stroke="#808080"></path><path d="M288 -17L75 0L206 0Z" fill="#3f3f3f" stroke="#3f3f3f"></path><path d="M900 383L858 340L830 410Z" fill="#282828" stroke="#282828"></path><path d="M900 311L846 325L858 340Z" fill="#333333" stroke="#333333"></path><path d="M819 532L848 499L794 494Z" fill="#4b4b4b" stroke="#4b4b4b"></path><path d="M900 383L900 340L896 344Z" fill="#1d1d1d" stroke="#1d1d1d"></path><path d="M75 0L58 21L74 43Z" fill="#3f3f3f" stroke="#3f3f3f"></path><path d="M896 344L900 311L858 340Z" fill="#000000" stroke="#000000"></path><path d="M900 279L900 258L845 259Z" fill="#282828" stroke="#282828"></path><path d="M900 383L830 410L900 424Z" fill="#3f3f3f" stroke="#3f3f3f"></path><path d="M896 344L900 340L900 311Z" fill="#000000" stroke="#000000"></path><path d="M44 544L88 600L109 523Z" fill="#808080" stroke="#808080"></path><path d="M127 583L88 600L145 600Z" fill="#727272" stroke="#727272"></path><path d="M145 600L81 637L215 600Z" fill="#808080" stroke="#808080"></path><path d="M0 68L78 67L0 61Z" fill="#000000" stroke="#000000"></path><path d="M-40 202L-23 423L-14 369Z" fill="#1d1d1d" stroke="#1d1d1d"></path><path d="M0 485L44 544L44 451Z" fill="#282828" stroke="#282828"></path><path d="M900 424L830 410L851 462Z" fill="#000000" stroke="#000000"></path><path d="M900 504L900 485L848 499Z" fill="#333333" stroke="#333333"></path><path d="M757 600L788 606L819 532Z" fill="#4b4b4b" stroke="#4b4b4b"></path><path d="M616 637L788 606L757 600Z" fill="#808080" stroke="#808080"></path><path d="M942 413L912 315L900 340Z" fill="#808080" stroke="#808080"></path><path d="M900 340L912 315L900 311Z" fill="#333333" stroke="#333333"></path><path d="M900 311L912 315L900 279Z" fill="#282828" stroke="#282828"></path><path d="M900 279L941 201L900 258Z" fill="#333333" stroke="#333333"></path><path d="M-40 202L0 211L0 144Z" fill="#333333" stroke="#333333"></path><path d="M-14 369L-23 423L0 390Z" fill="#000000" stroke="#000000"></path><path d="M14 456L0 485L44 451Z" fill="#282828" stroke="#282828"></path><path d="M-23 423L0 485L14 456Z" fill="#656565" stroke="#656565"></path><path d="M900 485L900 424L851 462Z" fill="#333333" stroke="#333333"></path><path d="M900 383L942 413L900 340Z" fill="#1d1d1d" stroke="#1d1d1d"></path><path d="M900 485L851 462L848 499Z" fill="#121212" stroke="#121212"></path><path d="M-33 105L-40 202L0 144Z" fill="#282828" stroke="#282828"></path><path d="M0 61L78 67L74 43Z" fill="#121212" stroke="#121212"></path><path d="M0 112L-33 105L0 144Z" fill="#4b4b4b" stroke="#4b4b4b"></path><path d="M0 61L74 43L58 21Z" fill="#000000" stroke="#000000"></path><path d="M29 0L0 61L58 21Z" fill="#1d1d1d" stroke="#1d1d1d"></path><path d="M0 68L-33 105L0 112Z" fill="#808080" stroke="#808080"></path><path d="M-23 423L0 522L0 485Z" fill="#585858" stroke="#585858"></path><path d="M0 485L0 522L44 544Z" fill="#727272" stroke="#727272"></path><path d="M30 600L81 637L88 600Z" fill="#727272" stroke="#727272"></path><path d="M872 170L900 102L821 131Z" fill="#1d1d1d" stroke="#1d1d1d"></path><path d="M941 201L900 102L872 170Z" fill="#727272" stroke="#727272"></path><path d="M941 201L872 170L900 258Z" fill="#808080" stroke="#808080"></path><path d="M941 201L900 100L900 102Z" fill="#000000" stroke="#000000"></path><path d="M900 102L900 100L821 131Z" fill="#727272" stroke="#727272"></path><path d="M288 -17L29 0L75 0Z" fill="#121212" stroke="#121212"></path><path d="M75 0L29 0L58 21Z" fill="#1d1d1d" stroke="#1d1d1d"></path><path d="M900 100L882 56L821 131Z" fill="#4b4b4b" stroke="#4b4b4b"></path><path d="M816 24L854 0L729 0Z" fill="#656565" stroke="#656565"></path><path d="M30 600L88 600L44 544Z" fill="#585858" stroke="#585858"></path><path d="M88 600L81 637L145 600Z" fill="#656565" stroke="#656565"></path><path d="M900 504L848 499L819 532Z" fill="#3f3f3f" stroke="#3f3f3f"></path><path d="M900 424L942 413L900 383Z" fill="#727272" stroke="#727272"></path><path d="M0 0L-33 105L0 61Z" fill="#3f3f3f" stroke="#3f3f3f"></path><path d="M0 61L-33 105L0 68Z" fill="#808080" stroke="#808080"></path><path d="M882 56L854 0L816 24Z" fill="#3f3f3f" stroke="#3f3f3f"></path><path d="M942 413L941 201L912 315Z" fill="#282828" stroke="#282828"></path><path d="M912 315L941 201L900 279Z" fill="#000000" stroke="#000000"></path><path d="M889 600L900 504L819 532Z" fill="#1d1d1d" stroke="#1d1d1d"></path><path d="M900 485L942 413L900 424Z" fill="#000000" stroke="#000000"></path><path d="M0 576L30 600L44 544Z" fill="#282828" stroke="#282828"></path><path d="M900 100L900 57L882 56Z" fill="#121212" stroke="#121212"></path><path d="M882 56L900 0L854 0Z" fill="#727272" stroke="#727272"></path><path d="M941 201L900 57L900 100Z" fill="#000000" stroke="#000000"></path><path d="M900 504L942 413L900 485Z" fill="#4b4b4b" stroke="#4b4b4b"></path><path d="M288 -17L0 0L29 0Z" fill="#000000" stroke="#000000"></path><path d="M29 0L0 0L0 61Z" fill="#282828" stroke="#282828"></path><path d="M-23 423L0 576L0 522Z" fill="#282828" stroke="#282828"></path><path d="M0 522L0 576L44 544Z" fill="#727272" stroke="#727272"></path><path d="M-23 423L0 600L0 576Z" fill="#727272" stroke="#727272"></path><path d="M0 576L0 600L30 600Z" fill="#000000" stroke="#000000"></path><path d="M30 600L0 600L81 637Z" fill="#4b4b4b" stroke="#4b4b4b"></path><path d="M941 201L900 0L900 57Z" fill="#808080" stroke="#808080"></path><path d="M900 57L900 0L882 56Z" fill="#4b4b4b" stroke="#4b4b4b"></path><path d="M854 0L900 0L707 -35Z" fill="#808080" stroke="#808080"></path><path d="M788 606L889 600L819 532Z" fill="#808080" stroke="#808080"></path><path d="M900 504L900 600L942 413Z" fill="#282828" stroke="#282828"></path><path d="M895 600L889 600L788 606Z" fill="#656565" stroke="#656565"></path><path d="M900 600L895 600L788 606Z" fill="#808080" stroke="#808080"></path><path d="M889 600L895 600L900 504Z" fill="#808080" stroke="#808080"></path><path d="M616 637L900 600L788 606Z" fill="#656565" stroke="#656565"></path><path d="M895 600L900 600L900 504Z" fill="#4b4b4b" stroke="#4b4b4b"></path></g></svg>