<?xml version="1.0" encoding="utf-8"?>
<!-- Generator: Adobe Illustrator 27.5.0, SVG Export Plug-In . SVG Version: 6.00 Build 0)  -->
<svg version="1.1" id="Layer_1" xmlns="http://www.w3.org/2000/svg" xmlns:xlink="http://www.w3.org/1999/xlink" x="0px" y="0px"
	 viewBox="0 0 4000 4000" style="enable-background:new 0 0 4000 4000;" xml:space="preserve">
<g>
	<g>
		<rect style="fill:#0BCBFF;" width="4000" height="4000"/>
	</g>
	<g>
		<g>
			<g>
				<path style="fill:#FDB106;" d="M3241.7,2316.95c30.8,29.95,18.35,81.9-22.6,94.75l-304.25,95.15
					c-26.25,8.25-42.8,34.1-39.3,61.4l51.75,401.05c5.1,39.45-31,71.75-69.65,62.3l-313.35-76.45c-28.65-7-57.9,9.15-67.25,37.15
					l-94.45,283.9c-12.6,37.8-59.25,51.15-89.95,25.75l-234.8-194.35c-33.55-27.75-82.15-27.75-115.7,0l-234.8,194.35
					c-30.7,25.4-77.35,12.05-89.95-25.75l-94.45-283.9c-9.35-28-38.6-44.15-67.25-37.15l-313.35,76.45
					c-38.65,9.45-74.75-22.85-69.65-62.3l51.75-401.05c3.5-27.3-13.05-53.15-39.3-61.4L780.9,2411.7
					c-40.95-12.85-53.4-64.8-22.6-94.75l207.25-201.85c28.2-27.45,28.2-72.75,0-100.2L758.3,1813.05
					c-30.8-29.95-18.35-81.9,22.6-94.75l304.25-95.15c26.25-8.25,42.8-34.1,39.3-61.4l-36.4-282.05l-15.35-119
					c-5.1-39.45,31-71.75,69.65-62.3l192.5,46.95l120.85,29.5c28.65,7,57.9-9.15,67.25-37.15l46.4-139.5l48.05-144.4
					c12.6-37.8,59.25-51.15,89.95-25.75l185.8,153.85c0.05,0,0.1,0.05,0.1,0.05l48.9,40.45c33.55,27.75,82.15,27.75,115.7,0
					l87.3-72.25l147.5-122.1c30.7-25.4,77.35-12.05,89.95,25.75l58.05,174.5l36.4,109.4c9.35,28,38.6,44.15,67.25,37.15
					l313.35-76.45c38.65-9.45,74.75,22.85,69.65,62.3l-51.75,401.05c-3.5,27.3,13.05,53.15,39.3,61.4l304.25,95.15
					c40.95,12.85,53.4,64.8,22.6,94.75l-207.25,201.85c-28.2,27.45-28.2,72.75,0,100.2L3241.7,2316.95z"/>
			</g>
			<g style="opacity:0.25;">
				<path style="fill:#000072;" d="M1169.478,2105.223l-166.41,162.071c-24.696,24.052-14.732,65.76,18.169,76.053l244.252,76.411
					c21.077,6.594,34.381,27.365,31.555,49.269l-41.547,321.989c-4.089,31.693,24.896,57.625,55.941,50.046l251.562-61.41
					c23.021-5.62,46.503,7.363,53.986,29.847l75.852,227.916c10.105,30.364,47.56,41.097,72.213,20.693l188.518-156.023
					c26.94-22.297,65.926-22.297,92.866,0l188.518,156.023c24.653,20.404,62.108,9.671,72.214-20.693l75.852-227.916
					c7.483-22.485,30.965-35.467,53.986-29.847l251.562,61.41c31.044,7.578,60.03-18.353,55.94-50.046l-41.547-321.989
					c-2.826-21.903,10.478-42.675,31.555-49.269l244.252-76.411c32.901-10.293,42.865-52.001,18.168-76.053l-166.41-162.071
					c-22.63-22.041-22.63-58.405,0-80.445l166.41-162.071c24.696-24.052,14.732-65.76-18.168-76.053l-244.252-76.411
					c-21.077-6.594-34.381-27.366-31.555-49.269l41.547-321.989c4.09-31.693-24.896-57.625-55.94-50.046l-251.562,61.41
					c-23.021,5.62-46.503-7.362-53.986-29.847l-75.852-227.916c-10.105-30.364-47.561-41.097-72.214-20.693l-188.518,156.023
					c-26.94,22.297-65.926,22.297-92.866,0l-188.518-156.023c-24.653-20.404-62.108-9.671-72.213,20.693l-75.852,227.916
					c-7.483,22.484-30.965,35.467-53.986,29.847l-251.562-61.41c-31.044-7.578-60.03,18.353-55.941,50.046l41.547,321.989
					c2.826,21.903-10.477,42.675-31.555,49.269l-244.252,76.411c-32.901,10.293-42.865,52.001-18.169,76.053l166.41,162.071
					C1192.108,2046.818,1192.108,2083.182,1169.478,2105.223z"/>
			</g>
			<g style="opacity:0.7;">
				<path style="fill:#FFFFFF;" d="M1334.85,1145.35c-74.25,2.6-166.2,7.55-189.5,16.8c-24.25,9.55-44.7,70.15-57.3,117.55
					l-15.35-119c-5.1-39.45,31-71.75,69.65-62.3L1334.85,1145.35z"/>
			</g>
			<g style="opacity:0.7;">
				<path style="fill:#FFFFFF;" d="M1893.15,981.9c-73.4-37.05-179.85-88-203.5-84.95c-21.1,2.75-76.6,56.05-120.3,101.25
					l48.05-144.4c12.6-37.8,59.25-51.15,89.95-25.75L1893.15,981.9z"/>
			</g>
			<g style="opacity:0.7;">
				<path style="fill:#FFFFFF;" d="M2440.65,1028.3c-44.15-49.65-104.25-112.6-127.45-115.8c-26.05-3.6-113.9,21.2-168.05,37.65
					l147.5-122.1c30.7-25.4,77.35-12.05,89.95,25.75L2440.65,1028.3z"/>
			</g>
			<g>
				<path style="fill:#000072;" d="M2328.782,3334.974c-17.637,0-34.966-6.089-48.896-17.617l-234.805-194.331
					c-26.123-21.621-64.038-21.621-90.161,0l-234.805,194.331c-19.507,16.152-45.688,21.611-70.029,14.648
					c-24.341-6.978-43.652-25.483-51.646-49.507l-94.478-283.882c-5.986-17.983-25.108-28.574-43.525-24.063l-313.33,76.489
					c-24.565,5.991-50.479-0.488-69.326-17.354c-18.843-16.86-28.159-41.895-24.922-66.973l51.748-401.045
					c2.28-17.69-8.423-34.395-25.444-39.722l-304.224-95.171c-26.035-8.145-45.361-28.848-51.699-55.376
					c-6.338-26.533,1.543-53.735,21.084-72.764l207.271-201.87c9.736-9.482,15.098-22.183,15.098-35.771
					s-5.361-26.289-15.098-35.771l-207.271-201.865c-19.541-19.033-27.422-46.24-21.084-72.773
					c6.343-26.528,25.669-47.227,51.699-55.366l304.224-95.176c17.021-5.327,27.72-22.031,25.444-39.722l-51.748-401.045
					c-3.237-25.078,6.079-50.117,24.922-66.978c18.843-16.86,44.756-23.345,69.326-17.349l313.33,76.489
					c18.418,4.487,37.539-6.074,43.525-24.063l94.478-283.872c7.993-24.028,27.305-42.539,51.646-49.517
					c24.336-6.978,50.518-1.504,70.029,14.648l234.805,194.331c26.123,21.621,64.038,21.621,90.161,0l234.805-194.331
					c19.507-16.147,45.674-21.616,70.029-14.648c24.346,6.977,43.652,25.488,51.646,49.517l94.478,283.877
					c5.986,17.988,25.098,28.545,43.521,24.058l313.335-76.489c24.541-5.991,50.474,0.488,69.321,17.349
					c18.843,16.855,28.164,41.899,24.927,66.978l-51.748,401.05c-2.28,17.685,8.418,34.39,25.439,39.717l304.229,95.176
					c26.03,8.14,45.356,28.843,51.694,55.371c6.343,26.533-1.543,53.735-21.084,72.769l-207.271,201.865
					c-9.731,9.482-15.093,22.183-15.093,35.771s5.361,26.289,15.093,35.771l207.271,201.87
					c19.541,19.028,27.422,46.226,21.089,72.759c-6.338,26.528-25.664,47.236-51.699,55.381l-304.229,95.171
					c-17.021,5.327-27.72,22.031-25.439,39.722l51.748,401.05c3.237,25.078-6.084,50.112-24.927,66.973
					c-18.848,16.86-44.775,23.34-69.321,17.349l-313.33-76.489c-18.442-4.512-37.544,6.074-43.521,24.063l-94.482,283.877
					c-7.993,24.028-27.305,42.534-51.646,49.512C2342.957,3333.998,2335.843,3334.974,2328.782,3334.974z M1999.998,3066.825
					c25.073,0,50.137,8.462,70.591,25.391l234.805,194.331c9.478,7.842,21.699,10.386,33.506,7.007
					c11.821-3.389,20.825-12.021,24.712-23.691l94.478-283.872c12.505-37.598,52.466-59.683,90.957-50.293l313.33,76.489
					c11.938,2.9,24.023-0.112,33.169-8.301c9.15-8.188,13.496-19.868,11.929-32.046l-51.748-401.05
					c-4.771-36.968,17.588-71.885,53.164-83.013l304.229-95.171c12.456-3.896,21.704-13.804,24.736-26.499
					s-0.742-25.708-10.093-34.81l-207.271-201.875c-17.529-17.075-27.183-39.951-27.183-64.424c0-24.473,9.653-47.349,27.183-64.424
					l207.271-201.865c9.351-9.106,13.125-22.124,10.093-34.819c-3.037-12.695-12.28-22.598-24.736-26.494l-304.229-95.176
					c-35.576-11.128-57.935-46.04-53.164-83.008l51.748-401.05c1.567-12.182-2.778-23.862-11.929-32.051
					c-9.15-8.188-21.235-11.221-33.169-8.301l-313.33,76.489c-38.462,9.394-78.452-12.691-90.962-50.288l-94.473-283.877
					c-3.887-11.665-12.891-20.303-24.712-23.691c-11.831-3.389-24.033-0.825-33.506,7.007l-234.805,194.331
					c-40.908,33.862-100.278,33.853-141.177,0l-234.805-194.331c-9.473-7.832-21.665-10.391-33.506-7.007
					c-11.821,3.389-20.825,12.026-24.712,23.691l-94.478,283.877c-12.51,37.598-52.451,59.688-90.962,50.288l-313.325-76.489
					c-11.934-2.891-24.024,0.117-33.174,8.301c-9.15,8.189-13.496,19.868-11.924,32.046l51.748,401.055
					c4.766,36.973-17.598,71.88-53.169,83.008l-304.224,95.176c-12.456,3.897-21.704,13.799-24.736,26.489
					c-3.032,12.695,0.737,25.713,10.088,34.824l207.271,201.865c17.529,17.07,27.188,39.951,27.188,64.424
					c0,24.473-9.658,47.354-27.188,64.424l-207.271,201.87c-9.351,9.106-13.12,22.119-10.088,34.814
					c3.032,12.695,12.28,22.603,24.736,26.499l304.224,95.171c35.576,11.128,57.935,46.04,53.169,83.008l-51.748,401.055
					c-1.572,12.178,2.773,23.857,11.924,32.046c9.15,8.179,21.235,11.216,33.174,8.301l313.33-76.489
					c38.506-9.409,78.447,12.7,90.957,50.293l94.478,283.877c3.887,11.665,12.891,20.298,24.712,23.687
					c11.816,3.384,24.033,0.83,33.506-7.007l234.805-194.331C1949.861,3075.287,1974.934,3066.825,1999.998,3066.825z"/>
			</g>
		</g>
		<g>
			<g>
				<circle style="fill:#FED901;" cx="2000" cy="2045.714" r="828.75"/>
			</g>
			<g style="opacity:0.3;">
				<path style="fill:#000072;" d="M2000,2664.464c-422.137,0-770.552-315.619-822.155-723.75c-4.348,34.388-6.595,69.432-6.595,105
					c0,457.706,371.044,828.75,828.75,828.75s828.75-371.044,828.75-828.75c0-35.568-2.247-70.612-6.595-105
					C2770.552,2348.845,2422.137,2664.464,2000,2664.464z"/>
			</g>
			<g style="opacity:0.7;">
				<path style="fill:#FFFFFF;" d="M2000,1216.964c-457.706,0-828.75,371.044-828.75,828.75c0,80.351,11.477,158.013,32.808,231.484
					c-11.643-55.335-17.808-112.686-17.808-171.484c0-291.721,150.749-548.206,378.572-695.891c0.23,2.574,0.817,5.05,1.829,7.392
					c11.563,26.766,71.165,26.766,133.125,0c61.96-26.767,102.814-70.164,91.251-96.931c-1.747-4.043-4.706-7.4-8.488-10.221
					c73.76-21.514,151.753-33.099,232.461-33.099c377.355,0,695.762,252.222,795.941,597.266
					C2731.948,1498.817,2398.908,1216.964,2000,1216.964z"/>
			</g>
			<g>
				<g>
					<path style="fill:#FF55BA;" d="M2142.411,2109.554c0,0,92.589-50.625,122.589,14.732
						c37.16,80.956-123.766,117.009-181.615,39.888C2083.385,2164.174,2125.089,2139.286,2142.411,2109.554z"/>
				</g>
				<g>
					<path style="fill:#000072;" d="M2179.485,2224.301c-41.479,0-84.668-15.723-110.098-49.624l-11.67-15.562l16.699-9.971
						c10.537-6.309,40.596-27.329,52.871-48.398l2.451-4.209l4.277-2.339c2.373-1.299,58.687-31.641,104.033-16.616
						c19.111,6.333,33.926,19.961,42.852,39.404c15.879,34.585,4.395,68.779-29.971,89.238
						C2231.028,2218.07,2205.594,2224.301,2179.485,2224.301z M2110.198,2167.123c35.576,29.59,93.247,26.631,122.832,9.028
						c28.682-17.075,19.185-37.764,16.064-44.565c-4.897-10.669-12.09-17.461-21.992-20.757
						c-23.301-7.793-57.095,4.668-72.402,12.095C2142.698,2141.112,2124.002,2156.923,2110.198,2167.123z"/>
				</g>
				<g>
					<path style="fill:#000072;" d="M2118.303,2119.127c7.271-0.321,13.972-0.043,20.945,0.563
						c6.914,0.659,13.838,1.637,20.742,3.055c6.897,1.381,13.848,3.22,20.645,5.905c6.687,2.687,13.745,6.284,18.921,12.363
						c1.008,1.185,0.867,2.964-0.32,3.973c-0.61,0.52-1.377,0.734-2.117,0.658l-0.469-0.05c-6.292-0.674-12.468,0.039-18.792,0.692
						c-6.292,0.728-12.554,1.451-18.884,2.344l-18.965,2.822c-6.26,0.944-12.788,1.831-18.716,2.546l-0.12,0.015
						c-9.604,1.157-18.328-5.688-19.487-15.292c-1.157-9.604,5.688-18.328,15.293-19.486
						C2117.41,2119.185,2117.878,2119.147,2118.303,2119.127z"/>
				</g>
			</g>
			<g>
				<path style="fill:#000072;" d="M1999.998,2202.679c-117.832,0-158.696-80.903-160.381-84.351
					c-4.844-9.922-0.727-21.899,9.194-26.748c9.937-4.834,21.899-0.732,26.753,9.199c1.216,2.397,32.471,61.899,124.434,61.899
					c91.968,0,123.223-59.502,124.507-62.036c4.976-9.795,16.958-13.813,26.782-8.921c9.839,4.893,13.916,16.738,9.097,26.606
					C2158.699,2121.776,2117.835,2202.679,1999.998,2202.679z"/>
			</g>
			<g>
				<path style="fill:#000072;" d="M1999.998,2894.467c-468.003,0-848.75-380.747-848.75-848.75s380.747-848.75,848.75-848.75
					s848.75,380.747,848.75,848.75S2468.001,2894.467,1999.998,2894.467z M1999.998,1236.967
					c-445.947,0-808.75,362.803-808.75,808.75s362.803,808.75,808.75,808.75s808.75-362.803,808.75-808.75
					S2445.945,1236.967,1999.998,1236.967z"/>
			</g>
		</g>
		<g>
			<g>
				<path style="fill:#0098FF;" d="M2642.65,1804.2v34.75c0,14.967-12.133,27.1-27.1,27.1h-0.051
					c-10.643,0-19.389,8.4-19.818,19.034l-3.531,87.466c-0.6,14.05-3.05,28.05-8.15,41.15c-28.05,71.7-104.35,69.35-104.35,69.35
					H2296.7c-35,0-69.75-8.45-100.15-25.85c-89.826-51.466-100.636-128.608-103.926-179.339
					c-0.709-10.935-5.889-21.111-14.52-27.863c-13.817-10.809-38.797-24.098-78.104-24.098s-64.287,13.289-78.104,24.098
					c-8.631,6.752-13.811,16.928-14.52,27.863c-3.291,50.731-14.1,127.873-103.926,179.339c-30.4,17.4-65.15,25.85-100.15,25.85
					h-182.95c0,0-76.3,2.35-104.35-69.35c-5.1-13.1-7.55-27.1-8.15-41.15l-3.531-87.466c-0.429-10.634-9.175-19.034-19.818-19.034h0
					c-14.995,0-27.15-12.156-27.15-27.15v-34.7c0-19.4,14.05-35.9,33.15-39.1l22.6-3.75c4.9-0.8,9.55-2.6,14.35-3.8
					c59.178-14.795,222.626-58.567,435.259,4.628c6.46,1.92,12.468,5.228,17.541,9.664c6.651,5.816,12.324,12.675,16.65,20.258
					l0.018,0.031c2.328,4.008,7.676,5.108,11.329,2.255c12.919-10.086,43.377-28.786,91.753-28.786
					c48.375,0,78.834,18.701,91.753,28.786c3.654,2.852,9.001,1.752,11.329-2.255l0.018-0.031
					c4.326-7.583,9.999-14.442,16.65-20.258c5.073-4.436,11.081-7.744,17.541-9.664c212.633-63.195,376.081-19.423,435.259-4.628
					c4.8,1.2,9.45,3,14.35,3.8l22.6,3.75C2628.6,1768.3,2642.65,1784.8,2642.65,1804.2z"/>
			</g>
			<g>
				<path style="fill:#000072;" d="M1517.874,2095.59c-29.976,0-89.468-15.864-113.516-77.334
					c-5.269-13.545-8.296-28.735-8.999-45.176l-3.53-87.495c-0.161-3.945-3.379-7.036-7.329-7.036
					c-21.86,0-39.649-17.788-39.649-39.648v-34.702c0-25.571,18.33-47.197,43.584-51.426l22.617-3.75
					c2.29-0.376,4.795-1.128,7.441-1.924c1.963-0.591,3.931-1.177,5.923-1.675l4.243-1.064
					c61.973-15.557,226.587-56.88,437.607,5.835c8.159,2.427,15.835,6.66,22.217,12.241c6.397,5.596,11.909,11.919,16.445,18.843
					c16.582-11.792,48.096-28.179,95.068-28.179c46.982,0,78.491,16.392,95.073,28.179c4.531-6.924,10.049-13.247,16.45-18.843
					c6.377-5.581,14.053-9.814,22.202-12.236c211.016-62.72,375.649-21.401,437.617-5.84l4.243,1.059
					c1.992,0.503,3.96,1.089,5.923,1.68c2.646,0.796,5.151,1.548,7.412,1.914l22.627,3.76c25.273,4.229,43.604,25.854,43.604,51.426
					v34.751c0,21.836-17.764,39.6-39.6,39.6c-3.999,0-7.217,3.091-7.378,7.036l-3.53,87.466c-0.703,16.47-3.73,31.66-8.989,45.181
					c-24.741,63.237-86.938,78.237-116.387,77.314l-182.563,0.005c-38.145,0-74.922-9.512-106.362-27.5
					c-101.685-58.257-107.642-150.141-110.19-189.38c-0.483-7.5-4.038-14.36-9.746-18.828c-12.505-9.78-34.868-21.441-70.405-21.441
					c-35.542,0-57.9,11.66-70.396,21.441c-5.713,4.468-9.268,11.328-9.751,18.823c-2.549,39.238-8.506,131.123-110.185,189.38
					c-31.445,17.993-68.223,27.505-106.367,27.505H1520.35C1519.549,2095.575,1518.724,2095.59,1517.874,2095.59z
					 M1637.781,1741.605c-95.483,0-167.061,17.969-203.037,27.002l-4.263,1.069c-1.606,0.4-3.198,0.884-4.79,1.362
					c-3.145,0.947-6.709,2.017-10.576,2.651l-22.568,3.74c-13.144,2.202-22.695,13.462-22.695,26.767v34.702
					c0,8.076,6.572,14.648,14.649,14.648c17.412,0,31.606,13.628,32.309,31.03l3.53,87.466c0.586,13.662,3.042,26.162,7.31,37.124
					c24.39,62.339,89.746,61.548,92.354,61.387l183.296-0.005c33.794,0,66.279-8.369,93.94-24.199
					c79.331-45.449,93.887-111.089,97.661-169.302c0.947-14.595,7.979-28.047,19.297-36.894
					c15.591-12.207,43.135-26.753,85.801-26.753c42.656,0,70.21,14.546,85.806,26.753c11.318,8.848,18.35,22.3,19.297,36.899
					c3.774,58.208,18.33,123.848,97.666,169.302c27.656,15.825,60.142,24.194,93.936,24.194h182.949
					c3.115,0.127,68.315,0.933,92.71-61.406c4.258-10.938,6.719-23.438,7.3-37.129l3.53-87.437
					c0.703-17.402,14.897-31.03,32.31-31.03c8.101,0,14.648-6.548,14.648-14.6v-34.751c0-13.306-9.551-24.565-22.715-26.767
					l-22.578-3.75c-3.838-0.625-7.402-1.694-10.547-2.642c-1.592-0.479-3.184-0.962-4.795-1.367l-4.258-1.065
					c-60.156-15.098-219.946-55.21-424.404,5.552c-4.722,1.406-9.18,3.862-12.871,7.095c-5.522,4.824-10.122,10.356-13.687,16.45
					l-0.405,0.713c-2.939,5.054-7.92,8.589-13.662,9.697c-5.737,1.113-11.597-0.308-16.162-3.867
					c-12.51-9.771-40.049-26.148-84.067-26.148c-44.009,0-71.558,16.377-84.063,26.143c-4.561,3.56-10.454,4.976-16.157,3.877
					c-5.742-1.108-10.723-4.644-13.667-9.702l-0.405-0.713c-3.564-6.094-8.164-11.626-13.682-16.45
					c-3.696-3.232-8.154-5.688-12.886-7.095C1776.956,1749.73,1701.961,1741.605,1637.781,1741.605z"/>
			</g>
			<g>
				<path style="fill:#000072;" d="M1472.893,1788.681c58.47-12.431,202.242-41.312,351.602,4.6
					c21.542,6.622,36.566,26.277,37.483,48.795c0.691,16.951,0.715,40.056-1.116,70.005c-0.651,10.655-2.949,21.214-7.097,31.05
					c-11.391,27.012-41.36,76.927-113.086,102.182c-10.6,3.732-21.781,5.581-33.019,5.581c-36.386,0-129.727,0-171.563,0
					c-27.353,0-53.916-11.411-71.258-32.565c-8.528-10.402-15.809-23.915-19.483-41.364c0,0-11.256-77.649-5.958-150.376
					C1440.759,1807.918,1454.583,1792.573,1472.893,1788.681z"/>
			</g>
			<g>
				<path style="fill:#000072;" d="M2527.107,1788.681c-58.47-12.431-202.242-41.312-351.602,4.6
					c-21.542,6.622-36.566,26.277-37.483,48.795c-0.69,16.951-0.715,40.056,1.116,70.005c0.652,10.655,2.949,21.214,7.097,31.05
					c11.391,27.012,41.36,76.927,113.086,102.182c10.6,3.732,21.781,5.581,33.019,5.581c36.386,0,129.727,0,171.563,0
					c27.353,0,53.916-11.411,71.258-32.565c8.528-10.402,15.809-23.915,19.482-41.364c0,0,11.256-77.649,5.959-150.376
					C2559.241,1807.918,2545.417,1792.573,2527.107,1788.681z"/>
			</g>
			<g style="opacity:0.5;">
				<path style="fill:#FFFFFF;" d="M1466.767,1914.058c-0.598,2.017-3.525,1.63-3.525-0.474v-78.581
					c0-9.696,6.413-18.26,15.752-20.865c23.743-6.622,76.802-20.196,153.984-21.687c3.716-0.072,4.359,5.288,0.732,6.1
					C1582.701,1809.961,1488.537,1840.62,1466.767,1914.058z"/>
			</g>
			<g style="opacity:0.5;">
				<path style="fill:#FFFFFF;" d="M2173.285,1914.058c-0.598,2.017-3.525,1.63-3.525-0.474v-78.581
					c0-9.696,6.413-18.26,15.752-20.865c23.743-6.622,76.802-20.196,153.984-21.687c3.716-0.072,4.359,5.288,0.732,6.1
					C2289.219,1809.961,2195.054,1840.62,2173.285,1914.058z"/>
			</g>
		</g>
		<g>
			<g>
				<path style="fill:#FFAB31;" d="M2229.438,2466.958l-148.339,503.028c-23.842,80.849-138.357,80.849-162.198,0l-148.339-503.028
					H2229.438z"/>
			</g>
			<g style="opacity:0.3;">
				<path style="fill:#000072;" d="M2188.811,2466.958l-118.788,402.819c-20.586,69.807-119.461,69.807-140.046,0l-118.788-402.819
					h-40.627l148.339,503.029c23.841,80.848,138.356,80.848,162.198,0l148.339-503.029H2188.811z"/>
			</g>
			<g>
				<path style="fill:#000072;" d="M2000.003,3050.624c-47.49,0-86.855-29.429-100.288-74.976l-148.335-503.032
					c-1.782-6.05-0.61-12.588,3.169-17.637c3.774-5.049,9.712-8.022,16.016-8.022h458.872c6.304,0,12.241,2.974,16.016,8.022
					c3.779,5.054,4.951,11.587,3.169,17.637l-148.34,503.032C2086.849,3021.19,2047.488,3050.619,2000.003,3050.624z
					 M1797.313,2486.957l140.771,477.373c10.064,34.131,38.584,46.294,61.919,46.294c23.33,0,51.846-12.163,61.909-46.289
					l140.776-477.378H1797.313z"/>
			</g>
			<g>
				<path style="fill:#FF5FB7;" d="M2232.55,2441.85c0,56.5-45.85,102.35-102.4,102.35h-260.3c-56.55,0-102.4-45.85-102.4-102.35
					c0-53.15,40.5-96.85,92.35-101.9c13.25-65.3,71-114.4,140.2-114.4c69.2,0,126.95,49.1,140.2,114.4
					C2192.05,2345,2232.55,2388.7,2232.55,2441.85z"/>
			</g>
			<g style="opacity:0.3;">
				<path style="fill:#000072;" d="M2211.904,2380.206c0.009,0.539,0.076,1.063,0.076,1.604c0,51.502-41.794,93.296-93.342,93.296
					h-237.275c-51.548,0-93.342-41.794-93.342-93.296c0-0.541,0.067-1.065,0.076-1.604c-12.955,17.151-20.646,38.497-20.646,61.644
					c0,56.5,45.85,102.35,102.4,102.35h260.3c56.55,0,102.4-45.85,102.4-102.35
					C2232.55,2418.703,2224.859,2397.357,2211.904,2380.206z"/>
			</g>
			<g style="opacity:0.7;">
				<path style="fill:#FFFFFF;" d="M1847.756,2386.854c7.38-1.625,13.053-7.346,15.23-14.582
					c17.718-58.874,72.37-101.721,137.013-101.721c62.732,0,116.055,40.351,135.345,96.542c3.47,10.108,11.466,18.152,21.777,20.963
					c36.336,9.907,64.562,39.354,72.854,76.33c1.635-7.26,2.573-14.782,2.573-22.534c0-53.15-40.5-96.85-92.35-101.9
					c-13.25-65.3-71-114.4-140.2-114.4c-69.2,0-126.95,49.1-140.2,114.4c-51.85,5.05-92.35,48.75-92.35,101.9
					c0,7.752,0.938,15.274,2.574,22.534C1778.683,2425.77,1809.082,2395.365,1847.756,2386.854z"/>
			</g>
			<g>
				<path style="fill:#000072;" d="M2130.149,2564.198h-260.298c-67.495,0-122.402-54.888-122.402-122.349
					c0-58.433,40.439-107.544,96.157-119.585c20.234-68.403,83.887-116.714,156.392-116.714c72.51,0,136.162,48.306,156.392,116.714
					c55.723,12.041,96.162,61.152,96.162,119.585C2252.552,2509.31,2197.645,2564.198,2130.149,2564.198z M1999.998,2245.551
					c-58.311,0-109.033,41.372-120.601,98.379c-1.748,8.613-8.911,15.073-17.661,15.928c-42.349,4.121-74.287,39.37-74.287,81.992
					c0,45.405,36.968,82.349,82.402,82.349h260.298c45.435,0,82.402-36.943,82.402-82.349c0-42.622-31.938-77.871-74.292-81.992
					c-8.75-0.854-15.913-7.314-17.661-15.933C2109.031,2286.923,2058.313,2245.551,1999.998,2245.551z"/>
			</g>
		</g>
		<g>
			<g>
				<g>
					<path style="fill:#FDB106;" d="M1733.571,2626.786l-226.401-84.445c-75.443-28.14-141.759-76.38-191.524-139.68
						c-44.527-56.637-98.399-132.045-140.289-211.946c0,0-81.994,145.354,69.685,373.801
						c40.615,61.172,97.708,109.601,164.398,140.325c72.313,33.315,176.62,79.146,263.06,108.374L1733.571,2626.786z"/>
				</g>
				<g style="opacity:0.3;">
					<path style="fill:#000072;" d="M1697.5,2733.214c-86.44-29.228-190.746-75.059-263.06-108.374
						c-66.69-30.724-123.783-79.154-164.399-140.325c-81.664-122.996-95.58-221.883-91.038-286.989
						c-1.214-2.271-2.452-4.533-3.646-6.812c0,0-81.994,145.354,69.685,373.801c40.616,61.171,97.708,109.601,164.399,140.325
						c72.313,33.315,176.62,79.146,263.06,108.374l61.072-186.428l-1.076-0.401L1697.5,2733.214z"/>
				</g>
				<g>
					<path style="fill:#000072;" d="M1672.498,2833.217c-2.158,0-4.321-0.352-6.406-1.055
						c-87.197-29.487-192.246-75.635-265.02-109.155c-70.508-32.485-130.224-83.467-172.69-147.427
						c-156.66-235.947-74.038-388.32-70.44-394.692c3.594-6.377,10.518-10.098,17.725-10.171
						c7.324,0.117,14.004,4.224,17.407,10.713c34.419,65.654,80.952,135.928,138.296,208.867
						c47.393,60.283,110.601,106.382,182.788,133.306l226.401,84.443c10.059,3.75,15.361,14.771,12.017,24.966l-61.074,186.431
						c-1.66,5.073-5.278,9.272-10.054,11.66C1678.646,2832.504,1675.574,2833.217,1672.498,2833.217z M1179.329,2239.296
						c-12.622,54.756-16.807,164.78,82.373,314.155c38.364,57.778,92.344,103.848,156.108,133.228
						c66.626,30.688,160.532,72.056,242.017,100.977l48.76-148.843l-208.403-77.729c-79.077-29.497-148.325-80-200.259-146.06
						C1252.298,2354.442,1211.863,2295.511,1179.329,2239.296z"/>
				</g>
			</g>
			<g>
				<g>
					<path style="fill:#FFFFFF;" d="M1719.083,2824.615c0,0-30.21,15.189-58.917-0.853c-10.121-5.655-15.857-16.812-15.508-28.4
						c1.04-34.475,8.218-117.223,51.438-172.997c8.73-11.265,22.417-17.836,36.665-17.474c17.237,0.438,39.9,5.569,52.538,26.958
						C1785.299,2631.85,1745.4,2661.47,1719.083,2824.615z"/>
				</g>
				<g style="opacity:0.3;">
					<path style="fill:#000072;" d="M1739.4,2729.7c-7.05,25.05-14.05,56.2-20.3,94.9c0,0-30.25,15.2-58.95-0.85
						c-10.1-5.65-15.85-16.8-15.5-28.4c0.75-24,4.5-71.45,21.3-116.9c-0.75,8.45-1.1,15.95-1.3,21.9c-0.35,11.6,5.4,22.75,15.5,28.4
						c28.7,16.05,58.95,0.85,58.95,0.85L1739.4,2729.7z"/>
				</g>
				<g>
					<path style="fill:#000072;" d="M1688.973,2851.078c-11.856,0-25.269-2.427-38.564-9.854
						c-16.46-9.204-26.323-27.002-25.742-46.46c1.064-35.317,8.618-123.994,55.62-184.648c12.642-16.313,32.358-25.513,52.983-25.22
						c31.108,0.796,55.698,13.853,69.248,36.777c5.469,9.248,4.004,20.21-4.927,26.001c-3.53,3.555-36.113,39.697-58.76,180.122
						c-1.026,6.338-5.024,11.802-10.762,14.683C1727.024,2843.007,1710.594,2851.078,1688.973,2851.078z M1731.639,2624.877
						c-7.642,0-14.98,3.613-19.736,9.741c-39.805,51.367-46.309,129.951-47.256,161.353c-0.132,4.409,1.939,8.472,5.274,10.337
						c11.235,6.27,23.393,5.205,31.387,3.315c18.135-105.596,41.982-155.103,57.5-177.485c-6.67-4.541-15.552-6.973-26.553-7.251
						C1732.049,2624.882,1731.844,2624.877,1731.639,2624.877z M1797.22,2647.909L1797.22,2647.909L1797.22,2647.909z"/>
				</g>
			</g>
			<g>
				<g>
					<path style="fill:#FFFFFF;" d="M1719.083,2824.615c2.933-45.444,15.99-121.901,66.216-192.765
						c5.454-7.695,13.875-12.722,23.238-13.862c26.62-3.241,79.615,0.925,90.472,81.932c0,0,105.794,27.011,74.281,150.813
						c-23.496,92.308-153.36,55.099-217.911,30.193C1732.297,2872.022,1717.49,2849.304,1719.083,2824.615z"/>
				</g>
				<g style="opacity:0.3;">
					<path style="fill:#000072;" d="M1805.379,2840.927c-23.081-8.905-37.889-31.624-36.296-56.312
						c2.585-40.048,13.068-104.178,49.887-167.343c-3.767,0.062-7.289,0.334-10.433,0.717c-9.363,1.14-17.784,6.167-23.238,13.862
						c-50.226,70.865-63.283,147.321-66.216,192.765c-1.593,24.689,13.214,47.407,36.296,56.312
						c60.705,23.421,179.146,57.693,212.59-15.073C1917.895,2878.802,1847.642,2857.233,1805.379,2840.927z"/>
				</g>
				<g>
					<path style="fill:#000072;" d="M1883.343,2929.833c-45.034,0.005-95.156-14.81-135.166-30.249
						c-31.499-12.153-51.216-42.803-49.048-76.26c3.379-52.432,18.242-130.225,69.854-203.042
						c8.687-12.256,22.222-20.327,37.134-22.148c21.987-2.651,92.549-3.828,110.625,86.548
						c43.433,16.919,102.075,68.281,75.928,170.986c-7.144,28.076-22.944,48.599-46.958,61.001
						C1927.532,2926.053,1906.082,2929.833,1883.343,2929.833z M1820.999,2637.206c-3.218,0-6.567,0.21-10.044,0.635
						c-3.745,0.459-7.148,2.49-9.336,5.571c-46.196,65.176-59.526,135.21-62.573,182.49c-0.005,0-0.005,0-0.005,0
						c-1.025,15.923,8.433,30.537,23.54,36.367c73.203,28.247,133.267,35.117,164.775,18.857
						c13.604-7.026,22.29-18.579,26.553-35.322c25.596-100.562-51.123-124.17-59.956-126.533
						c-7.803-2.085-13.696-8.691-14.771-16.694C1873.367,2659.149,1853.807,2637.206,1820.999,2637.206z"/>
				</g>
			</g>
		</g>
		<g>
			<g>
				<g>
					<path style="fill:#FDB106;" d="M2266.429,2626.786l226.4-84.445c75.443-28.14,141.759-76.38,191.524-139.68
						c44.527-56.637,98.399-132.045,140.289-211.946c0,0,81.994,145.354-69.685,373.801
						c-40.615,61.172-97.708,109.601-164.398,140.325c-72.313,33.315-176.62,79.146-263.06,108.374L2266.429,2626.786z"/>
				</g>
				<g style="opacity:0.3;">
					<path style="fill:#000072;" d="M2302.5,2733.214c86.44-29.228,190.747-75.059,263.06-108.374
						c66.69-30.724,123.783-79.154,164.398-140.325c81.664-122.996,95.58-221.883,91.038-286.989
						c1.214-2.271,2.452-4.533,3.646-6.812c0,0,81.994,145.354-69.685,373.801c-40.615,61.171-97.708,109.601-164.398,140.325
						c-72.313,33.315-176.62,79.146-263.06,108.374l-61.072-186.428l1.075-0.401L2302.5,2733.214z"/>
				</g>
				<g>
					<path style="fill:#000072;" d="M2327.498,2833.217c-3.081,0-6.147-0.713-8.95-2.114c-4.775-2.388-8.394-6.587-10.054-11.66
						l-61.069-186.431c-3.345-10.195,1.958-21.216,12.017-24.966l226.401-84.443c72.188-26.924,135.396-73.022,182.788-133.306
						c57.344-72.939,103.877-143.213,138.296-208.867c3.403-6.489,10.083-10.596,17.407-10.713
						c7.236,0.078,14.131,3.794,17.725,10.171c3.599,6.372,86.221,158.745-70.439,394.692
						c-42.466,63.96-102.183,114.941-172.69,147.427c-72.773,33.525-177.827,79.673-265.024,109.155
						C2331.819,2832.865,2329.656,2833.217,2327.498,2833.217z M2291.414,2638.812l48.755,148.843
						c81.484-28.921,175.396-70.288,242.021-100.977c63.765-29.38,117.744-75.449,156.108-133.228
						c99.15-149.336,95-259.341,82.363-314.141c-32.534,56.211-72.964,115.137-120.586,175.713
						c-51.934,66.06-121.182,116.563-200.259,146.06L2291.414,2638.812z"/>
				</g>
			</g>
			<g>
				<g>
					<path style="fill:#FFFFFF;" d="M2280.917,2824.615c0,0,30.21,15.189,58.917-0.853c10.121-5.655,15.857-16.812,15.508-28.4
						c-1.04-34.475-8.218-117.223-51.438-172.997c-8.73-11.265-22.417-17.836-36.665-17.474c-17.237,0.438-39.9,5.569-52.538,26.958
						C2214.701,2631.85,2254.6,2661.47,2280.917,2824.615z"/>
				</g>
				<g style="opacity:0.3;">
					<path style="fill:#000072;" d="M2260.6,2729.7c7.05,25.05,14.05,56.2,20.3,94.9c0,0,30.25,15.2,58.95-0.85
						c10.1-5.65,15.85-16.8,15.5-28.4c-0.75-24-4.5-71.45-21.3-116.9c0.75,8.45,1.1,15.95,1.3,21.9c0.35,11.6-5.4,22.75-15.5,28.4
						c-28.7,16.05-58.95,0.85-58.95,0.85L2260.6,2729.7z"/>
				</g>
				<g>
					<path style="fill:#000072;" d="M2311.023,2851.078c-21.621,0-38.047-8.071-39.092-8.599
						c-5.737-2.881-9.736-8.345-10.762-14.683c-22.651-140.425-55.229-176.567-58.76-180.122
						c-8.931-5.791-10.391-16.753-4.927-26.001c13.545-22.92,38.135-35.981,69.248-36.777c20.483-0.376,40.337,8.911,52.979,25.22
						c47.021,60.674,54.561,149.341,55.62,184.648c0.591,19.453-9.272,37.256-25.737,46.455
						C2336.297,2848.651,2322.879,2851.078,2311.023,2851.078z M2298.694,2809.623c8.003,1.885,20.151,2.959,31.387-3.32
						c3.335-1.86,5.4-5.918,5.269-10.332c-0.942-31.401-7.437-109.966-47.256-161.353c-4.873-6.294-12.446-9.814-20.347-9.731
						c-11.006,0.278-19.883,2.71-26.553,7.251C2256.707,2654.52,2280.555,2704.017,2298.694,2809.623z M2202.776,2647.909
						L2202.776,2647.909L2202.776,2647.909z"/>
				</g>
			</g>
			<g>
				<g>
					<path style="fill:#FFFFFF;" d="M2280.917,2824.615c-2.933-45.444-15.99-121.901-66.216-192.765
						c-5.454-7.695-13.875-12.722-23.238-13.862c-26.62-3.241-79.615,0.925-90.472,81.932c0,0-105.794,27.011-74.281,150.813
						c23.496,92.308,153.359,55.099,217.911,30.193C2267.703,2872.022,2282.51,2849.304,2280.917,2824.615z"/>
				</g>
				<g style="opacity:0.3;">
					<path style="fill:#000072;" d="M2194.621,2840.927c23.081-8.905,37.889-31.624,36.296-56.312
						c-2.584-40.048-13.068-104.178-49.887-167.343c3.767,0.062,7.289,0.334,10.433,0.717c9.363,1.14,17.784,6.167,23.238,13.862
						c50.226,70.865,63.283,147.321,66.216,192.765c1.593,24.689-13.214,47.407-36.296,56.312
						c-60.705,23.421-179.146,57.693-212.59-15.073C2082.105,2878.802,2152.358,2857.233,2194.621,2840.927z"/>
				</g>
				<g>
					<path style="fill:#000072;" d="M2116.658,2929.833c-22.744,0-44.185-3.774-62.368-13.164
						c-24.014-12.402-39.815-32.925-46.958-61.001c-26.148-102.705,32.49-154.067,75.923-170.986
						c18.081-90.361,88.652-89.224,110.625-86.548c14.917,1.821,28.452,9.893,37.139,22.148
						c51.611,72.827,66.475,150.61,69.858,203.042l0,0c2.153,33.462-17.559,64.106-49.053,76.26
						C2211.819,2915.018,2161.688,2929.833,2116.658,2929.833z M2178.997,2637.206c-32.808,0-52.363,21.943-58.184,65.371
						c-1.084,8.086-6.973,14.702-14.878,16.724c-8.726,2.334-85.439,25.942-59.844,126.504
						c4.263,16.743,12.949,28.296,26.553,35.322c31.494,16.265,91.563,9.385,164.78-18.857c15.103-5.83,24.561-20.444,23.53-36.372
						v0.005c-3.047-47.275-16.377-117.305-62.573-182.49c-2.188-3.081-5.591-5.112-9.341-5.571
						C2185.564,2637.416,2182.22,2637.206,2178.997,2637.206z"/>
				</g>
			</g>
		</g>
		<g>
			<g>
				
					<ellipse transform="matrix(0.1602 -0.9871 0.9871 0.1602 218.1366 2137.103)" style="fill:#FDB106;" cx="1365" cy="940.357" rx="69.107" ry="69.107"/>
			</g>
			<g style="opacity:0.25;">
				<path style="fill:#000072;" d="M1423.546,903.762c-4.154,34.194-33.23,60.702-68.546,60.702
					c-24.709,0-46.329-13.01-58.546-32.512c-0.335,2.76-0.561,5.554-0.561,8.405c0,38.167,30.94,69.107,69.107,69.107
					s69.107-30.94,69.107-69.107C1434.107,926.9,1430.199,914.383,1423.546,903.762z"/>
			</g>
			<g style="opacity:0.7;">
				<path style="fill:#FFFFFF;" d="M1310.893,975.357c0-38.167,30.94-69.107,69.107-69.107c21.57,0,40.823,9.891,53.496,25.375
					c-4.301-34.035-33.294-60.375-68.496-60.375c-38.167,0-69.107,30.94-69.107,69.107c0,16.596,5.86,31.818,15.611,43.732
					C1311.142,981.222,1310.893,978.321,1310.893,975.357z"/>
			</g>
			<g>
				<path style="fill:#000072;" d="M1364.998,1029.467c-49.136,0-89.106-39.976-89.106-89.111c0-49.136,39.971-89.107,89.106-89.107
					c49.136,0,89.111,39.971,89.111,89.107C1454.109,989.491,1414.134,1029.467,1364.998,1029.467z M1364.998,891.249
					c-27.075,0-49.106,22.031-49.106,49.107c0,27.08,22.031,49.111,49.106,49.111c27.08,0,49.111-22.031,49.111-49.111
					C1414.109,913.28,1392.078,891.249,1364.998,891.249z"/>
			</g>
		</g>
		<g>
			<g>
				
					<ellipse transform="matrix(0.7071 -0.7071 0.7071 0.7071 -155.6366 2590.2698)" style="fill:#FDB106;" cx="3048.914" cy="1483.005" rx="69.107" ry="69.107"/>
			</g>
			<g style="opacity:0.25;">
				<path style="fill:#000072;" d="M3107.46,1446.41c-4.154,34.194-33.23,60.702-68.546,60.702
					c-24.709,0-46.329-13.01-58.546-32.512c-0.335,2.76-0.561,5.554-0.561,8.405c0,38.167,30.94,69.107,69.107,69.107
					c38.167,0,69.107-30.94,69.107-69.107C3118.021,1469.547,3114.113,1457.031,3107.46,1446.41z"/>
			</g>
			<g style="opacity:0.7;">
				<path style="fill:#FFFFFF;" d="M2994.807,1518.005c0-38.167,30.94-69.107,69.107-69.107c21.571,0,40.823,9.891,53.496,25.375
					c-4.301-34.035-33.294-60.375-68.496-60.375c-38.167,0-69.107,30.94-69.107,69.107c0,16.596,5.86,31.818,15.611,43.732
					C2995.055,1523.87,2994.807,1520.969,2994.807,1518.005z"/>
			</g>
			<g>
				<path style="fill:#000072;" d="M3048.914,1572.113c-49.136,0-89.106-39.971-89.106-89.107c0-49.136,39.971-89.106,89.106-89.106
					s89.106,39.971,89.106,89.106C3138.021,1532.142,3098.05,1572.113,3048.914,1572.113z M3048.914,1433.9
					c-27.075,0-49.106,22.031-49.106,49.106s22.031,49.107,49.106,49.107s49.106-22.031,49.106-49.107
					S3075.989,1433.9,3048.914,1433.9z"/>
			</g>
		</g>
		<g>
			<g>
				<circle style="fill:#FDB106;" cx="1171.25" cy="846.78" r="31.773"/>
			</g>
			<g style="opacity:0.25;">
				<path style="fill:#000072;" d="M1198.167,829.955c-1.91,15.721-15.278,27.908-31.515,27.908c-11.36,0-21.3-5.982-26.917-14.948
					c-0.154,1.269-0.258,2.553-0.258,3.864c0,17.547,14.225,31.773,31.773,31.773s31.773-14.225,31.773-31.773
					C1203.023,840.593,1201.226,834.838,1198.167,829.955z"/>
			</g>
			<g style="opacity:0.7;">
				<path style="fill:#FFFFFF;" d="M1146.374,862.872c0-17.548,14.225-31.773,31.773-31.773c9.917,0,18.769,4.547,24.595,11.667
					c-1.978-15.648-15.307-27.758-31.492-27.758c-17.547,0-31.773,14.225-31.773,31.773c0,7.63,2.694,14.629,7.177,20.106
					C1146.488,865.568,1146.374,864.234,1146.374,862.872z"/>
			</g>
			<g>
				<path style="fill:#000072;" d="M1171.248,887.748c-22.588,0-40.967-18.379-40.967-40.967s18.379-40.967,40.967-40.967
					s40.967,18.379,40.967,40.967S1193.836,887.748,1171.248,887.748z M1171.248,824.203c-12.451,0-22.578,10.127-22.578,22.578
					c0,12.451,10.127,22.578,22.578,22.578c12.451,0,22.578-10.127,22.578-22.578
					C1193.826,834.33,1183.699,824.203,1171.248,824.203z"/>
			</g>
		</g>
		<g>
			<g>
				<circle style="fill:#FDB106;" cx="2593.792" cy="998.2" r="31.773"/>
			</g>
			<g style="opacity:0.25;">
				<path style="fill:#000072;" d="M2620.709,981.375c-1.91,15.721-15.278,27.908-31.515,27.908c-11.36,0-21.3-5.982-26.917-14.948
					c-0.154,1.269-0.258,2.553-0.258,3.864c0,17.548,14.225,31.773,31.773,31.773c17.547,0,31.772-14.225,31.772-31.773
					C2625.564,992.013,2623.768,986.258,2620.709,981.375z"/>
			</g>
			<g style="opacity:0.7;">
				<path style="fill:#FFFFFF;" d="M2568.916,1014.292c0-17.548,14.225-31.773,31.772-31.773c9.917,0,18.769,4.547,24.595,11.667
					c-1.978-15.648-15.307-27.758-31.492-27.758c-17.548,0-31.773,14.225-31.773,31.773c0,7.63,2.694,14.629,7.177,20.106
					C2569.03,1016.988,2568.916,1015.654,2568.916,1014.292z"/>
			</g>
			<g>
				<path style="fill:#000072;" d="M2593.792,1039.169c-22.588,0-40.967-18.379-40.967-40.967s18.379-40.967,40.967-40.967
					s40.967,18.379,40.967,40.967S2616.38,1039.169,2593.792,1039.169z M2593.792,975.624c-12.451,0-22.578,10.127-22.578,22.578
					c0,12.451,10.127,22.578,22.578,22.578s22.578-10.127,22.578-22.578C2616.37,985.751,2606.243,975.624,2593.792,975.624z"/>
			</g>
		</g>
		<g>
			<g>
				<circle style="fill:#FDB106;" cx="1857.589" cy="612.5" r="31.773"/>
			</g>
			<g style="opacity:0.25;">
				<path style="fill:#000072;" d="M1884.506,595.675c-1.91,15.721-15.278,27.908-31.515,27.908c-11.36,0-21.3-5.982-26.917-14.948
					c-0.154,1.269-0.258,2.553-0.258,3.864c0,17.547,14.225,31.773,31.773,31.773c17.547,0,31.773-14.225,31.773-31.773
					C1889.362,606.313,1887.565,600.558,1884.506,595.675z"/>
			</g>
			<g style="opacity:0.7;">
				<path style="fill:#FFFFFF;" d="M1832.713,628.591c0-17.547,14.225-31.773,31.773-31.773c9.917,0,18.769,4.547,24.595,11.667
					c-1.978-15.648-15.307-27.758-31.492-27.758c-17.548,0-31.773,14.225-31.773,31.773c0,7.63,2.694,14.628,7.177,20.106
					C1832.827,631.288,1832.713,629.955,1832.713,628.591z"/>
			</g>
			<g>
				<path style="fill:#000072;" d="M1857.591,653.466c-22.588,0-40.967-18.379-40.967-40.967s18.379-40.967,40.967-40.967
					s40.967,18.379,40.967,40.967S1880.179,653.466,1857.591,653.466z M1857.591,589.921c-12.451,0-22.578,10.127-22.578,22.578
					c0,12.451,10.127,22.578,22.578,22.578s22.578-10.127,22.578-22.578C1880.169,600.048,1870.042,589.921,1857.591,589.921z"/>
			</g>
		</g>
	</g>
</g>
</svg>
